<svg width="48" height="48" viewBox="0 0 48 48" fill="none" xmlns="http://www.w3.org/2000/svg">
<path d="M3.99979 36H17.9998" stroke="#0A84FF" stroke-width="2" stroke-linecap="round" stroke-linejoin="round"/>
<path d="M9.27179 25.272L3.99979 20L7.10579 18.448C7.3833 18.309 7.6894 18.2366 7.99979 18.2366C8.31017 18.2366 8.61628 18.309 8.89379 18.448L11.9998 20L18.3838 16.046L9.99979 8.046L15.9998 6L25.9998 12L35.4138 6.62C35.8672 6.3546 36.3685 6.18111 36.889 6.10944C37.4095 6.03777 37.9391 6.06932 38.4474 6.2023C38.9557 6.33527 39.4328 6.56706 39.8515 6.88443C40.2703 7.20181 40.6224 7.59855 40.8878 8.052C41.1532 8.50545 41.3267 9.00674 41.3983 9.52725C41.47 10.0477 41.4385 10.5773 41.3055 11.0856C41.1725 11.5939 40.9407 12.071 40.6234 12.4898C40.306 12.9085 39.9092 13.2606 39.4558 13.526L22.6498 23.61C22.2196 23.8683 21.7447 24.0434 21.2498 24.126L11.0138 25.832C10.6998 25.8833 10.3782 25.8593 10.0753 25.762C9.77243 25.6646 9.49703 25.4967 9.27179 25.272V25.272Z" stroke="#0A84FF" stroke-width="2" stroke-linecap="round" stroke-linejoin="round"/>
<path d="M35 44C32.6134 44 30.3245 43.0521 28.6368 41.3647C26.949 39.6773 26.0006 37.3886 26 35.002C26 30.134 30.14 25.996 35.008 26C37.395 26.0011 39.6837 26.9503 41.3708 28.6389C43.0579 30.3274 44.0051 32.6171 44.004 35.004C44.003 37.391 43.0537 39.6797 41.3652 41.3668C39.6766 43.0539 37.387 44.0011 35 44Z" stroke="#0A84FF" stroke-width="2" stroke-linecap="round" stroke-linejoin="round"/>
<path d="M38.9998 33L33.9998 38L30.9998 35" stroke="#0A84FF" stroke-width="2" stroke-linecap="round" stroke-linejoin="round"/>
</svg>
