<svg width="48" height="48" viewBox="0 0 48 48" fill="none" xmlns="http://www.w3.org/2000/svg">
<path d="M39.4393 12.9599L39.4593 12.9199" stroke="#0A84FF" stroke-width="2" stroke-linecap="round" stroke-linejoin="round"/>
<path d="M29.7403 5.86035L29.7203 5.88035" stroke="#0A84FF" stroke-width="2" stroke-linecap="round" stroke-linejoin="round"/>
<path d="M42.9993 23.8403V23.8203" stroke="#0A84FF" stroke-width="2" stroke-linecap="round" stroke-linejoin="round"/>
<path d="M4.99957 23.8203V23.8403" stroke="#0A84FF" stroke-width="2" stroke-linecap="round" stroke-linejoin="round"/>
<path d="M8.53864 12.9199L8.55863 12.9599" stroke="#0A84FF" stroke-width="2" stroke-linecap="round" stroke-linejoin="round"/>
<path d="M18.2793 5.88035L18.2593 5.86035" stroke="#0A84FF" stroke-width="2" stroke-linecap="round" stroke-linejoin="round"/>
<path d="M37.4353 10.564C39.2056 12.327 40.6108 14.4218 41.5705 16.7285C42.5302 19.0353 43.0255 21.5087 43.0281 24.0071C43.0307 26.5055 42.5405 28.98 41.5856 31.2887C40.6307 33.5974 39.2298 35.6952 37.4631 37.4618C35.6965 39.2285 33.5987 40.6294 31.29 41.5843C28.9812 42.5392 26.5068 43.0294 24.0084 43.0268C21.51 43.0242 19.0366 42.5289 16.7298 41.5692C14.4231 40.6095 12.3283 39.2043 10.5653 37.434C7.05416 33.8603 5.09661 29.0444 5.11865 24.0346C5.14069 19.0247 7.14053 14.2263 10.6829 10.6836C14.2254 7.14096 19.0236 5.14077 24.0335 5.11835C29.0433 5.09594 33.8593 7.05313 37.4333 10.564" stroke="#0A84FF" stroke-width="2" stroke-linecap="round" stroke-linejoin="round"/>
<path d="M31.7786 21.5002L35.7786 20.2002" stroke="#0A84FF" stroke-width="2" stroke-linecap="round" stroke-linejoin="round"/>
<path d="M42.885 25.6883L35.783 20.1923L38.299 11.5723" stroke="#0A84FF" stroke-width="2" stroke-linecap="round" stroke-linejoin="round"/>
<path d="M23.9998 15.8596V11.6396" stroke="#0A84FF" stroke-width="2" stroke-linecap="round" stroke-linejoin="round"/>
<path d="M31.4217 6.57617L23.9997 11.6302L16.5777 6.57617" stroke="#0A84FF" stroke-width="2" stroke-linecap="round" stroke-linejoin="round"/>
<path d="M28.8004 30.6201L31.2804 34.0401" stroke="#0A84FF" stroke-width="2" stroke-linecap="round" stroke-linejoin="round"/>
<path d="M28.2496 42.4984L31.2836 34.0464L40.2576 33.7744" stroke="#0A84FF" stroke-width="2" stroke-linecap="round" stroke-linejoin="round"/>
<path d="M16.22 21.5002L12.22 20.2002" stroke="#0A84FF" stroke-width="2" stroke-linecap="round" stroke-linejoin="round"/>
<path d="M5.11261 25.6883L12.2146 20.1923L9.69861 11.5723" stroke="#0A84FF" stroke-width="2" stroke-linecap="round" stroke-linejoin="round"/>
<path d="M19.2 30.6201L16.72 34.0401" stroke="#0A84FF" stroke-width="2" stroke-linecap="round" stroke-linejoin="round"/>
<path d="M19.7498 42.4984L16.7158 34.0464L7.74176 33.7744" stroke="#0A84FF" stroke-width="2" stroke-linecap="round" stroke-linejoin="round"/>
<path d="M24.0003 15.8516L31.7703 21.4976L28.8023 30.6296H19.1983L16.2303 21.4976L24.0003 15.8516Z" stroke="#0A84FF" stroke-width="2" stroke-linecap="round" stroke-linejoin="round"/>
</svg>
