<svg width="72" height="72" viewBox="0 0 72 72" fill="none" xmlns="http://www.w3.org/2000/svg">
<path d="M15.4804 18.4798C16.8658 16.861 18.4389 15.4129 20.1664 14.1658" stroke="#0A84FF" stroke-width="3" stroke-linecap="round" stroke-linejoin="round"/>
<path d="M50.9996 58.4458C47.6778 60.668 43.9038 62.1244 39.9503 62.7096C35.9969 63.2949 31.9627 62.9943 28.1396 61.8298" stroke="#0A84FF" stroke-width="3" stroke-linecap="round" stroke-linejoin="round"/>
<path d="M36 48V24" stroke="#0A84FF" stroke-width="3" stroke-linecap="round" stroke-linejoin="round"/>
<path d="M45 39L36 48L27 39" stroke="#0A84FF" stroke-width="3" stroke-linecap="round" stroke-linejoin="round"/>
<path d="M19.0483 57C15.1686 53.8594 12.2342 49.706 10.5703 45" stroke="#0A84FF" stroke-width="3" stroke-linecap="round" stroke-linejoin="round"/>
<path d="M10.569 27C9.53603 29.8884 9.00536 32.9324 8.99997 36" stroke="#0A84FF" stroke-width="3" stroke-linecap="round" stroke-linejoin="round"/>
<path d="M58.389 51C61.3916 46.5737 62.9978 41.3486 63 36C63 28.8392 60.1553 21.9716 55.0919 16.9081C50.0284 11.8446 43.1608 9 36 9" stroke="#0A84FF" stroke-width="3" stroke-linecap="round" stroke-linejoin="round"/>
</svg>
