<svg width="48" height="48" viewBox="0 0 48 48" fill="none" xmlns="http://www.w3.org/2000/svg">
<path d="M9.99951 6H37.9995C39.0604 6 40.0778 6.42143 40.8279 7.17157C41.5781 7.92172 41.9995 8.93913 41.9995 10V38C41.9995 39.0609 41.5781 40.0783 40.8279 40.8284C40.0778 41.5786 39.0604 42 37.9995 42H9.99951C8.93865 42 7.92123 41.5786 7.17108 40.8284C6.42094 40.0783 5.99951 39.0609 5.99951 38V10C5.99951 8.93913 6.42094 7.92172 7.17108 7.17157C7.92123 6.42143 8.93865 6 9.99951 6V6Z" stroke="#0A84FF" stroke-width="2" stroke-linecap="round" stroke-linejoin="round"/>
<path d="M15.9994 30V34" stroke="#0A84FF" stroke-width="2" stroke-linecap="round" stroke-linejoin="round"/>
<path d="M23.9995 22.0001V34.0001" stroke="#0A84FF" stroke-width="2" stroke-linecap="round" stroke-linejoin="round"/>
<path d="M31.9996 13.9999V33.9999" stroke="#0A84FF" stroke-width="2" stroke-linecap="round" stroke-linejoin="round"/>
</svg>
