<svg width="73" height="72" viewBox="0 0 73 72" fill="none" xmlns="http://www.w3.org/2000/svg">
<g clip-path="url(#clip0)">
<path d="M41.3067 32.9463C42.7134 34.353 43.5037 36.2609 43.5037 38.2503C43.5037 40.2396 42.7134 42.1475 41.3067 43.5543C39.9 44.961 37.9921 45.7512 36.0027 45.7512C34.0133 45.7512 32.1054 44.961 30.6987 43.5543C29.292 42.1475 28.5017 40.2396 28.5017 38.2503C28.5017 36.2609 29.292 34.353 30.6987 32.9463C32.1054 31.5396 34.0133 30.7493 36.0027 30.7493C37.9921 30.7493 39.9 31.5396 41.3067 32.9463" stroke="#0A84FF" stroke-width="3" stroke-linecap="round" stroke-linejoin="round"/>
<path d="M57.7657 14.9463C58.4622 15.6428 59.0147 16.4697 59.3917 17.3798C59.7686 18.2898 59.9626 19.2652 59.9626 20.2503C59.9626 21.2353 59.7686 22.2107 59.3917 23.1208C59.0147 24.0308 58.4622 24.8577 57.7657 25.5543C57.0691 26.2508 56.2422 26.8033 55.3322 27.1803C54.4221 27.5572 53.4467 27.7512 52.4617 27.7512C50.4723 27.7512 48.5644 26.961 47.1577 25.5543C45.7509 24.1475 44.9607 22.2396 44.9607 20.2503C44.9607 18.2609 45.7509 16.353 47.1577 14.9463C48.5644 13.5395 50.4723 12.7493 52.4617 12.7493C54.451 12.7493 56.3589 13.5395 57.7657 14.9463" stroke="#0A84FF" stroke-width="3" stroke-linecap="round" stroke-linejoin="round"/>
<path d="M54.0017 36.75C58.6007 36.75 63.0017 38.349 66.0017 40.749" stroke="#0A84FF" stroke-width="3" stroke-linecap="round" stroke-linejoin="round"/>
<path d="M24.8477 14.9463C26.2544 16.353 27.0447 18.2609 27.0447 20.2503C27.0447 22.2396 26.2544 24.1475 24.8477 25.5543C23.441 26.961 21.5331 27.7512 19.5437 27.7512C17.5543 27.7512 15.6464 26.961 14.2397 25.5543C12.833 24.1475 12.0427 22.2396 12.0427 20.2503C12.0427 18.2609 12.833 16.353 14.2397 14.9463C15.6464 13.5395 17.5543 12.7493 19.5437 12.7493C21.5331 12.7493 23.441 13.5395 24.8477 14.9463" stroke="#0A84FF" stroke-width="3" stroke-linecap="round" stroke-linejoin="round"/>
<path d="M6.00168 40.749C9.00168 38.349 13.4027 36.75 18.0017 36.75" stroke="#0A84FF" stroke-width="3" stroke-linecap="round" stroke-linejoin="round"/>
<path d="M49.7752 59.25C46.2802 56.547 41.2582 54.75 36.0022 54.75C30.7462 54.75 25.7242 56.547 22.2292 59.25" stroke="#0A84FF" stroke-width="3" stroke-linecap="round" stroke-linejoin="round"/>
</g>
<defs>
<clipPath id="clip0">
<rect x="0.00167847" width="72" height="72" fill="white"/>
</clipPath>
</defs>
</svg>
