<svg width="28" height="26" viewBox="0 0 28 26" fill="none" xmlns="http://www.w3.org/2000/svg">
<path fill-rule="evenodd" clip-rule="evenodd" d="M21.255 24.8841C22.9325 25.618 23.5616 24.0803 23.5616 24.0803L28 1.78335C27.9651 0.280584 25.9381 1.18924 25.9381 1.18924L1.08994 10.9398C1.08994 10.9398 -0.0982929 11.3591 0.00655147 12.0931C0.111396 12.827 1.055 13.1764 1.055 13.1764L7.31071 15.2733C7.31071 15.2733 9.19791 21.4591 9.58234 22.6474C9.93182 23.8007 10.2464 23.8356 10.2464 23.8356C10.5958 23.9754 10.9104 23.7308 10.9104 23.7308L14.9643 20.0612L21.255 24.8841ZM22.3384 5.73245C22.3384 5.73245 23.2121 5.20823 23.1772 5.73245C23.1772 5.73245 23.317 5.80235 22.8626 6.29162C22.4433 6.711 12.5529 15.5878 11.2249 16.7761C11.1201 16.846 11.0502 16.9508 11.0502 17.0906L10.6657 20.3757C10.5958 20.7252 10.1415 20.7601 10.0367 20.4456L8.39411 15.0636C8.32421 14.8539 8.39411 14.6093 8.6038 14.4695L22.3384 5.73245Z" fill="white"/>
</svg>
