<svg width="48" height="48" viewBox="0 0 48 48" fill="none" xmlns="http://www.w3.org/2000/svg">
<path d="M32.995 19.2274C28.027 20.8774 19.971 20.8774 15.001 19.2274" stroke="#0A84FF" stroke-width="2" stroke-linecap="round" stroke-linejoin="round"/>
<path d="M21.1987 27.8H26.7987" stroke="#0A84FF" stroke-width="2" stroke-linecap="round" stroke-linejoin="round"/>
<path d="M26.665 20.3721V20.4661C26.665 27.2341 26.665 29.9401 27.999 34.0001" stroke="#0A84FF" stroke-width="2" stroke-linecap="round" stroke-linejoin="round"/>
<path d="M21.3336 20.3721V20.4661C21.3336 27.2341 21.3336 29.9401 19.9996 34.0001" stroke="#0A84FF" stroke-width="2" stroke-linecap="round" stroke-linejoin="round"/>
<path d="M36.7276 11.2721C38.3991 12.9436 39.725 14.9279 40.6296 17.1118C41.5341 19.2956 41.9997 21.6363 41.9997 24.0001C41.9997 26.3639 41.5341 28.7046 40.6296 30.8885C39.725 33.0723 38.3991 35.0566 36.7276 36.7281C35.0562 38.3996 33.0718 39.7254 30.888 40.63C28.7041 41.5346 26.3634 42.0002 23.9996 42.0002C21.6358 42.0002 19.2952 41.5346 17.1113 40.63C14.9274 39.7254 12.9431 38.3996 11.2716 36.7281C7.89595 33.3524 5.99951 28.774 5.99951 24.0001C5.99951 19.2262 7.89595 14.6478 11.2716 11.2721C14.6473 7.89643 19.2257 6 23.9996 6C28.7735 6 33.3519 7.89643 36.7276 11.2721" stroke="#0A84FF" stroke-width="2" stroke-linecap="round" stroke-linejoin="round"/>
<path d="M24.6711 13.8283C24.8493 14.0065 24.9495 14.2483 24.9495 14.5003C24.9495 14.7524 24.8493 14.9941 24.6711 15.1723C24.4929 15.3505 24.2512 15.4507 23.9991 15.4507C23.7471 15.4507 23.5053 15.3505 23.3271 15.1723C23.1489 14.9941 23.0488 14.7524 23.0488 14.5003C23.0488 14.2483 23.1489 14.0065 23.3271 13.8283C23.5053 13.6501 23.7471 13.55 23.9991 13.55C24.2512 13.55 24.4929 13.6501 24.6711 13.8283" stroke="#0A84FF" stroke-width="2" stroke-linecap="round" stroke-linejoin="round"/>
</svg>
