<svg width="312" height="379" viewBox="0 0 312 379" fill="none" xmlns="http://www.w3.org/2000/svg">
<mask id="mask0" mask-type="alpha" maskUnits="userSpaceOnUse" x="0" y="1" width="312" height="373">
<path d="M0 70.5255C0 66.7269 2.67129 63.452 6.39245 62.6887L302.392 1.97079C307.354 0.953114 312 4.74314 312 9.8076V282.525C312 295.007 304.743 306.35 293.41 311.58L162.705 371.905C158.451 373.869 153.549 373.869 149.295 371.905L18.5901 311.58C7.25732 306.35 0 295.007 0 282.525V70.5255Z" fill="white"/>
</mask>
<g mask="url(#mask0)">
<g filter="url(#filter0_i)">
<path d="M0 70.5255C0 66.7269 2.67129 63.452 6.39245 62.6887L302.392 1.97079C307.354 0.953114 312 4.74314 312 9.8076V282.525C312 295.007 304.743 306.35 293.41 311.58L156 375L18.5901 311.58C7.25732 306.35 0 295.007 0 282.525V70.5255Z" fill="#15191E"/>
</g>
<g filter="url(#filter1_d)">
<path d="M0 306L153.128 364.895C154.977 365.606 157.023 365.606 158.872 364.895L312 306V375H0V306Z" fill="url(#paint0_linear)"/>
</g>
<g filter="url(#filter2_d)">
<path d="M0 70.5256C0 66.7269 2.67129 63.452 6.39245 62.6887L302.392 1.97079C307.354 0.953114 312 4.74314 312 9.8076V71L0 119V70.5256Z" fill="url(#paint1_linear)"/>
</g>
</g>
<rect x="28.5" y="58.5" width="67" height="67" rx="14.5" fill="#15191E" stroke="url(#paint2_linear)" stroke-width="3"/>
<ellipse cx="62.0008" cy="83.6667" rx="6.66667" ry="6.66667" stroke="#0A84FF" stroke-width="1.5"/>
<path d="M75.3232 101.502L74.5757 101.563V101.563L75.3232 101.502ZM48.6782 101.502L49.4257 101.563L48.6782 101.502ZM74.1743 104.06L74.584 104.689L74.1743 104.06ZM49.8271 104.06L50.2369 103.432H50.2369L49.8271 104.06ZM74.7347 98.8092L74.024 99.0487L74.7347 98.8092ZM73.7645 103.432C72.1225 104.503 68.4604 106.25 62.0007 106.25V107.75C68.7487 107.75 72.6961 105.92 74.584 104.689L73.7645 103.432ZM62.0007 106.25C55.541 106.25 51.8788 104.503 50.2369 103.432L49.4174 104.689C51.3053 105.92 55.2527 107.75 62.0007 107.75V106.25ZM47.9307 101.441C47.8284 102.692 48.321 103.973 49.4174 104.689L50.2369 103.432C49.6815 103.07 49.3599 102.368 49.4257 101.563L47.9307 101.441ZM74.5757 101.563C74.6414 102.368 74.3199 103.07 73.7645 103.432L74.584 104.689C75.6804 103.973 76.173 102.692 76.0707 101.441L74.5757 101.563ZM74.024 99.0487C74.2948 99.8521 74.5064 100.716 74.5757 101.563L76.0707 101.441C75.9886 100.437 75.742 99.4497 75.4454 98.5696L74.024 99.0487ZM49.4257 101.563C49.495 100.716 49.7066 99.8521 49.9774 99.0487L48.556 98.5696C48.2594 99.4497 48.0128 100.437 47.9307 101.441L49.4257 101.563ZM69.268 94.5835H54.7334V96.0835H69.268V94.5835ZM49.9774 99.0487C50.6093 97.174 52.5565 96.0835 54.7334 96.0835V94.5835C52.1224 94.5835 49.4534 95.9072 48.556 98.5696L49.9774 99.0487ZM75.4454 98.5696C74.548 95.9072 71.8789 94.5835 69.268 94.5835V96.0835C71.4449 96.0835 73.3921 97.174 74.024 99.0487L75.4454 98.5696Z" fill="#0A84FF"/>
<rect x="122.5" y="58.5" width="67" height="67" rx="14.5" fill="#15191E" stroke="url(#paint3_linear)" stroke-width="3"/>
<ellipse cx="156.001" cy="83.6667" rx="6.66667" ry="6.66667" stroke="#0A84FF" stroke-width="1.5"/>
<path d="M169.323 101.502L168.576 101.563V101.563L169.323 101.502ZM142.678 101.502L143.426 101.563L142.678 101.502ZM168.174 104.06L168.584 104.689L168.174 104.06ZM143.827 104.06L144.237 103.432H144.237L143.827 104.06ZM168.735 98.8092L168.024 99.0487L168.735 98.8092ZM167.765 103.432C166.123 104.503 162.46 106.25 156.001 106.25V107.75C162.749 107.75 166.696 105.92 168.584 104.689L167.765 103.432ZM156.001 106.25C149.541 106.25 145.879 104.503 144.237 103.432L143.417 104.689C145.305 105.92 149.253 107.75 156.001 107.75V106.25ZM141.931 101.441C141.828 102.692 142.321 103.973 143.417 104.689L144.237 103.432C143.682 103.07 143.36 102.368 143.426 101.563L141.931 101.441ZM168.576 101.563C168.641 102.368 168.32 103.07 167.765 103.432L168.584 104.689C169.68 103.973 170.173 102.692 170.071 101.441L168.576 101.563ZM168.024 99.0487C168.295 99.8521 168.506 100.716 168.576 101.563L170.071 101.441C169.989 100.437 169.742 99.4497 169.445 98.5696L168.024 99.0487ZM143.426 101.563C143.495 100.716 143.707 99.8521 143.977 99.0487L142.556 98.5696C142.259 99.4497 142.013 100.437 141.931 101.441L143.426 101.563ZM163.268 94.5835H148.733V96.0835H163.268V94.5835ZM143.977 99.0487C144.609 97.174 146.556 96.0835 148.733 96.0835V94.5835C146.122 94.5835 143.453 95.9072 142.556 98.5696L143.977 99.0487ZM169.445 98.5696C168.548 95.9072 165.879 94.5835 163.268 94.5835V96.0835C165.445 96.0835 167.392 97.174 168.024 99.0487L169.445 98.5696Z" fill="#0A84FF"/>
<rect x="216.5" y="58.5" width="67" height="67" rx="14.5" fill="#15191E" stroke="url(#paint4_linear)" stroke-width="3"/>
<ellipse cx="250.001" cy="83.6667" rx="6.66667" ry="6.66667" stroke="#0A84FF" stroke-width="1.5"/>
<path d="M263.323 101.502L262.576 101.563V101.563L263.323 101.502ZM236.678 101.502L237.426 101.563L236.678 101.502ZM262.174 104.06L262.584 104.689L262.174 104.06ZM237.827 104.06L238.237 103.432H238.237L237.827 104.06ZM262.735 98.8092L262.024 99.0487L262.735 98.8092ZM261.765 103.432C260.123 104.503 256.46 106.25 250.001 106.25V107.75C256.749 107.75 260.696 105.92 262.584 104.689L261.765 103.432ZM250.001 106.25C243.541 106.25 239.879 104.503 238.237 103.432L237.417 104.689C239.305 105.92 243.253 107.75 250.001 107.75V106.25ZM235.931 101.441C235.828 102.692 236.321 103.973 237.417 104.689L238.237 103.432C237.682 103.07 237.36 102.368 237.426 101.563L235.931 101.441ZM262.576 101.563C262.641 102.368 262.32 103.07 261.765 103.432L262.584 104.689C263.68 103.973 264.173 102.692 264.071 101.441L262.576 101.563ZM262.024 99.0487C262.295 99.8521 262.506 100.716 262.576 101.563L264.071 101.441C263.989 100.437 263.742 99.4497 263.445 98.5696L262.024 99.0487ZM237.426 101.563C237.495 100.716 237.707 99.8521 237.977 99.0487L236.556 98.5696C236.259 99.4497 236.013 100.437 235.931 101.441L237.426 101.563ZM257.268 94.5835H242.733V96.0835H257.268V94.5835ZM237.977 99.0487C238.609 97.174 240.556 96.0835 242.733 96.0835V94.5835C240.122 94.5835 237.453 95.9072 236.556 98.5696L237.977 99.0487ZM263.445 98.5696C262.548 95.9072 259.879 94.5835 257.268 94.5835V96.0835C259.445 96.0835 261.392 97.174 262.024 99.0487L263.445 98.5696Z" fill="#0A84FF"/>
<defs>
<filter id="filter0_i" x="0" y="1.80469" width="312" height="373.195" filterUnits="userSpaceOnUse" color-interpolation-filters="sRGB">
<feFlood flood-opacity="0" result="BackgroundImageFix"/>
<feBlend mode="normal" in="SourceGraphic" in2="BackgroundImageFix" result="shape"/>
<feColorMatrix in="SourceAlpha" type="matrix" values="0 0 0 0 0 0 0 0 0 0 0 0 0 0 0 0 0 0 127 0" result="hardAlpha"/>
<feOffset dy="-2"/>
<feComposite in2="hardAlpha" operator="arithmetic" k2="-1" k3="1"/>
<feColorMatrix type="matrix" values="0 0 0 0 0.294118 0 0 0 0 0.298039 0 0 0 0 0.305882 0 0 0 1 0"/>
<feBlend mode="normal" in2="shape" result="effect1_innerShadow"/>
</filter>
<filter id="filter1_d" x="0" y="306" width="312" height="73" filterUnits="userSpaceOnUse" color-interpolation-filters="sRGB">
<feFlood flood-opacity="0" result="BackgroundImageFix"/>
<feColorMatrix in="SourceAlpha" type="matrix" values="0 0 0 0 0 0 0 0 0 0 0 0 0 0 0 0 0 0 127 0"/>
<feOffset dy="4"/>
<feColorMatrix type="matrix" values="0 0 0 0 0.304167 0 0 0 0 0.218299 0 0 0 0 0.13434 0 0 0 1 0"/>
<feBlend mode="normal" in2="BackgroundImageFix" result="effect1_dropShadow"/>
<feBlend mode="normal" in="SourceGraphic" in2="effect1_dropShadow" result="shape"/>
</filter>
<filter id="filter2_d" x="0" y="1.80469" width="312" height="121.195" filterUnits="userSpaceOnUse" color-interpolation-filters="sRGB">
<feFlood flood-opacity="0" result="BackgroundImageFix"/>
<feColorMatrix in="SourceAlpha" type="matrix" values="0 0 0 0 0 0 0 0 0 0 0 0 0 0 0 0 0 0 127 0"/>
<feOffset dy="4"/>
<feColorMatrix type="matrix" values="0 0 0 0 0.295295 0 0 0 0 0.298025 0 0 0 0 0.304167 0 0 0 1 0"/>
<feBlend mode="normal" in2="BackgroundImageFix" result="effect1_dropShadow"/>
<feBlend mode="normal" in="SourceGraphic" in2="effect1_dropShadow" result="shape"/>
</filter>
<linearGradient id="paint0_linear" x1="156" y1="306" x2="156" y2="375" gradientUnits="userSpaceOnUse">
<stop stop-color="#D8DBE0"/>
<stop offset="1" stop-color="#7C808A"/>
</linearGradient>
<linearGradient id="paint1_linear" x1="156" y1="0" x2="156" y2="119" gradientUnits="userSpaceOnUse">
<stop stop-color="#D8DBE0"/>
<stop offset="1" stop-color="#7C808A"/>
</linearGradient>
<linearGradient id="paint2_linear" x1="62" y1="57" x2="62" y2="127" gradientUnits="userSpaceOnUse">
<stop stop-color="#D8DBE0"/>
<stop offset="1" stop-color="#7C808A"/>
</linearGradient>
<linearGradient id="paint3_linear" x1="156" y1="57" x2="156" y2="127" gradientUnits="userSpaceOnUse">
<stop stop-color="#D8DBE0"/>
<stop offset="1" stop-color="#7C808A"/>
</linearGradient>
<linearGradient id="paint4_linear" x1="250" y1="57" x2="250" y2="127" gradientUnits="userSpaceOnUse">
<stop stop-color="#D8DBE0"/>
<stop offset="1" stop-color="#7C808A"/>
</linearGradient>
</defs>
</svg>
