<?xml version="1.0" standalone="no"?>
<!DOCTYPE svg PUBLIC "-//W3C//DTD SVG 20010904//EN"
 "http://www.w3.org/TR/2001/REC-SVG-20010904/DTD/svg10.dtd">
<svg version="1.0" xmlns="http://www.w3.org/2000/svg"
 width="512.000000pt" height="512.000000pt" viewBox="0 0 512.000000 512.000000"
 preserveAspectRatio="xMidYMid meet">
<metadata>
Created by potrace 1.11, written by Peter Selinger 2001-2013
</metadata>
<g transform="translate(0.000000,512.000000) scale(0.100000,-0.100000)"
fill="#000000" stroke="none">
<path d="M882 5109 c-165 -16 -257 -41 -377 -102 -199 -103 -372 -297 -439
-495 -14 -39 -33 -118 -43 -174 -17 -97 -18 -205 -18 -1778 0 -1575 1 -1681
18 -1778 22 -126 45 -193 98 -291 104 -194 294 -360 487 -425 39 -14 118 -33
174 -43 97 -17 205 -18 1778 -18 1575 0 1681 1 1778 18 126 22 193 45 291 98
194 104 360 294 425 487 14 39 33 118 43 174 17 97 18 205 18 1778 0 1575 -1
1681 -18 1778 -22 126 -45 193 -98 291 -78 146 -202 273 -349 362 -79 47 -176
81 -302 105 -87 17 -191 19 -1738 20 -905 1 -1682 -2 -1728 -7z m3093 -210
c77 -5 174 -17 215 -25 324 -66 610 -348 679 -669 37 -169 41 -329 41 -1645 0
-1311 -4 -1477 -40 -1642 -65 -301 -324 -575 -620 -657 -161 -45 -197 -46
-1690 -46 -1495 0 -1529 1 -1692 46 -275 76 -531 333 -607 609 -45 161 -46
197 -46 1690 0 1495 1 1529 46 1692 51 184 194 376 369 495 146 99 290 140
555 156 143 9 2665 6 2790 -4z"/>
<path d="M1140 4813 c-90 -6 -246 -35 -300 -55 -207 -77 -410 -281 -480 -483
-11 -33 -28 -103 -38 -155 -16 -87 -17 -220 -17 -1555 0 -1376 1 -1466 19
-1565 36 -204 103 -330 254 -472 124 -116 240 -173 422 -206 87 -16 220 -17
1555 -17 1377 0 1466 1 1565 19 58 10 133 29 167 41 200 76 406 284 473 480
11 33 28 103 38 155 16 87 17 220 17 1555 0 1377 -1 1466 -19 1565 -10 58 -29
133 -41 167 -76 200 -284 406 -480 473 -161 55 -120 54 -1665 56 -784 0 -1445
-1 -1470 -3z m1376 -1289 c-4 -14 -68 -328 -142 -697 -76 -376 -148 -711 -165
-761 -52 -156 -113 -261 -204 -351 -139 -140 -299 -201 -550 -212 -307 -13
-551 70 -698 240 l-50 57 134 128 c74 70 155 147 182 171 l47 44 60 -66 c80
-86 144 -119 250 -125 138 -8 225 39 279 151 24 50 47 150 121 523 49 254 90
469 90 478 0 14 -35 16 -345 16 -190 0 -345 2 -345 5 0 8 81 399 85 413 3 9
139 12 631 12 l626 0 -6 -26z m1429 2 c127 -21 256 -60 353 -106 45 -21 82
-42 82 -44 0 -3 -45 -97 -101 -208 l-101 -203 -87 43 c-124 60 -257 92 -413
99 -251 11 -401 -54 -415 -180 -10 -94 56 -139 302 -207 360 -99 458 -143 559
-250 76 -81 105 -149 113 -261 10 -142 -25 -270 -109 -395 -120 -179 -366
-308 -658 -344 -307 -37 -691 23 -937 149 -106 54 -105 34 -7 221 47 91 97
184 110 207 l24 42 58 -33 c177 -104 388 -158 612 -158 101 0 138 4 195 22
123 39 180 123 139 207 -26 53 -105 90 -341 157 -323 93 -419 139 -522 251
-77 85 -95 142 -96 300 0 140 10 184 66 296 108 217 376 371 706 408 113 13
353 6 468 -13z"/>
</g>
</svg>
