<svg width="162" height="54" fill="none" xmlns="http://www.w3.org/2000/svg">
  <g clip-path="url(#clip0)">
    <path d="M148.442 0H12.851c-.495 0-.983 0-1.476.003-.412.002-.822.01-1.239.017-.905.01-1.807.09-2.7.238a8.983 8.983 0 00-2.562.845 8.677 8.677 0 00-3.77 3.774A8.897 8.897 0 00.26 7.442C.11 8.334.03 9.236.019 10.14c-.013.414-.014.828-.02 1.242v31.154c.006.418.007.823.02 1.242.01.904.091 1.806.241 2.698a8.88 8.88 0 00.843 2.567 8.366 8.366 0 001.588 2.176 8.459 8.459 0 002.182 1.588c.806.41 1.67.697 2.562.85.893.147 1.796.227 2.7.239.417.01.827.014 1.24.014.492.003.98.003 1.475.003h135.591c.484 0 .977 0 1.461-.003.411 0 .832-.005 1.243-.014a17.897 17.897 0 002.695-.238 9.163 9.163 0 002.572-.85 8.461 8.461 0 002.18-1.59 8.628 8.628 0 001.593-2.175 8.929 8.929 0 00.834-2.567c.15-.892.234-1.794.25-2.698.005-.419.005-.824.005-1.242.011-.49.011-.977.011-1.475V12.853c0-.493 0-.983-.011-1.471 0-.414 0-.828-.005-1.242-.016-.904-.1-1.806-.25-2.698a8.953 8.953 0 00-.834-2.565 8.717 8.717 0 00-3.773-3.774 9.112 9.112 0 00-2.572-.845 17.575 17.575 0 00-2.695-.238c-.411-.007-.832-.015-1.243-.017-.483-.003-.976-.003-1.46-.003z" fill="#000"/>
    <path d="M11.382 52.734c-.41 0-.812-.006-1.22-.015a17.108 17.108 0 01-2.518-.22 7.93 7.93 0 01-2.233-.738 7.286 7.286 0 01-1.883-1.37 7.172 7.172 0 01-1.376-1.882 7.713 7.713 0 01-.732-2.234 16.732 16.732 0 01-.224-2.527c-.009-.284-.02-1.23-.02-1.23V11.381s.012-.932.02-1.206c.01-.846.085-1.69.223-2.523a7.75 7.75 0 01.733-2.24A7.243 7.243 0 013.52 3.527 7.501 7.501 0 015.41 2.15a7.849 7.849 0 012.228-.733c.836-.137 1.681-.21 2.528-.221l1.216-.017h138.515l1.23.017c.839.01 1.677.084 2.505.22a8.006 8.006 0 012.252.738 7.538 7.538 0 013.255 3.262c.351.7.594 1.45.721 2.222.14.841.219 1.691.235 2.544.004.381.004.791.004 1.2.01.505.01.986.01 1.471v28.208c0 .49 0 .968-.01 1.45 0 .438 0 .84-.006 1.252a17.008 17.008 0 01-.23 2.499 7.73 7.73 0 01-.728 2.25 7.371 7.371 0 01-1.369 1.868 7.277 7.277 0 01-1.886 1.378 7.901 7.901 0 01-2.248.741 16.9 16.9 0 01-2.519.22c-.395.01-.808.015-1.21.015l-1.461.002-137.06-.002z" fill="#fff"/>
    <path d="M33.69 26.807a6.936 6.936 0 013.303-5.82 7.1 7.1 0 00-5.594-3.023c-2.353-.247-4.635 1.408-5.834 1.408-1.223 0-3.07-1.384-5.058-1.343a7.45 7.45 0 00-6.27 3.823c-2.71 4.694-.688 11.591 1.908 15.385 1.3 1.857 2.818 3.932 4.805 3.859 1.944-.081 2.67-1.24 5.017-1.24 2.325 0 3.006 1.24 5.033 1.193 2.086-.034 3.4-1.866 4.654-3.741a15.366 15.366 0 002.128-4.335 6.702 6.702 0 01-4.092-6.166zm-3.827-11.338a6.83 6.83 0 001.562-4.893 6.948 6.948 0 00-4.496 2.326 6.5 6.5 0 00-1.603 4.712 5.744 5.744 0 004.537-2.145zM57.016 36.58h-6.38l-1.532 4.523H46.4l6.043-16.737h2.808l6.042 16.737h-2.748l-1.53-4.523zm-5.72-2.088h5.057l-2.492-7.342h-.07l-2.495 7.342zm23.048.511c0 3.792-2.03 6.228-5.093 6.228a4.137 4.137 0 01-3.84-2.135h-.057v6.044h-2.505V28.9h2.425v2.03h.046a4.33 4.33 0 013.885-2.157c3.097 0 5.139 2.448 5.139 6.23zm-2.575 0c0-2.47-1.277-4.095-3.225-4.095-1.913 0-3.2 1.658-3.2 4.095 0 2.458 1.287 4.105 3.2 4.105 1.949 0 3.225-1.612 3.225-4.105zm16.006 0c0 3.792-2.03 6.228-5.093 6.228a4.136 4.136 0 01-3.84-2.135h-.057v6.044H76.28V28.9h2.424v2.03h.047a4.329 4.329 0 013.885-2.157c3.097 0 5.14 2.448 5.14 6.23zm-2.575 0c0-2.47-1.277-4.095-3.225-4.095-1.913 0-3.2 1.658-3.2 4.095 0 2.458 1.286 4.105 3.2 4.105 1.948 0 3.225-1.612 3.225-4.105zm11.453 1.437c.185 1.66 1.798 2.75 4.001 2.75 2.111 0 3.63-1.09 3.63-2.587 0-1.299-.916-2.077-3.085-2.61l-2.17-.523c-3.073-.742-4.5-2.18-4.5-4.512 0-2.887 2.517-4.871 6.09-4.871 3.538 0 5.962 1.984 6.044 4.871h-2.529c-.151-1.67-1.532-2.678-3.55-2.678-2.017 0-3.398 1.02-3.398 2.505 0 1.183.882 1.88 3.039 2.412l1.844.453c3.434.812 4.86 2.192 4.86 4.64 0 3.131-2.493 5.092-6.461 5.092-3.711 0-6.218-1.915-6.38-4.942h2.565zm15.684-10.427V28.9h2.32v1.983h-2.32v6.727c0 1.046.465 1.533 1.485 1.533.275-.005.55-.025.824-.058v1.971a6.883 6.883 0 01-1.392.116c-2.47 0-3.434-.928-3.434-3.294v-6.995h-1.774V28.9h1.774v-2.888h2.517zm3.662 8.99c0-3.84 2.261-6.253 5.787-6.253 3.538 0 5.789 2.413 5.789 6.253 0 3.85-2.239 6.252-5.789 6.252-3.548 0-5.787-2.402-5.787-6.252zm9.024 0c0-2.634-1.207-4.189-3.237-4.189-2.029 0-3.236 1.567-3.236 4.189 0 2.644 1.207 4.187 3.236 4.187 2.03 0 3.237-1.543 3.237-4.187zm4.617-6.103h2.389v2.078h.058a2.915 2.915 0 012.935-2.205c.289-.001.577.03.858.093v2.343a3.499 3.499 0 00-1.125-.151 2.52 2.52 0 00-2.5 1.733 2.524 2.524 0 00-.11 1.074v7.238h-2.505V28.901zm17.789 8.62c-.337 2.214-2.494 3.735-5.254 3.735-3.55 0-5.754-2.379-5.754-6.194 0-3.828 2.216-6.31 5.648-6.31 3.377 0 5.5 2.319 5.5 6.019v.858h-8.619v.151a3.167 3.167 0 00.861 2.47 3.181 3.181 0 002.422.987 2.76 2.76 0 002.818-1.717h2.378zm-8.467-3.643h6.1A2.927 2.927 0 00143.249 31a2.933 2.933 0 00-1.18-.22 3.084 3.084 0 00-2.199.901 3.09 3.09 0 00-.908 2.196zM49.518 15.168h1.075a1.35 1.35 0 001.516-1.282c0-.742-.558-1.221-1.504-1.221a1.435 1.435 0 00-1.623 1.26h-1.18a2.523 2.523 0 012.841-2.353c1.583 0 2.698.887 2.698 2.163a1.868 1.868 0 01-1.46 1.84v.094a1.874 1.874 0 011.788 1.945 2.685 2.685 0 01-3.004 2.39 2.672 2.672 0 01-3.02-2.379h1.199c.072.77.779 1.266 1.821 1.266 1.043 0 1.723-.558 1.723-1.343 0-.797-.64-1.288-1.76-1.288h-1.11v-1.092zm5.514 2.926c0-1.093.815-1.723 2.257-1.812l1.644-.095v-.524c0-.64-.422-1.003-1.242-1.003-.669 0-1.13.246-1.265.675h-1.16c.123-1.043 1.105-1.711 2.481-1.711 1.522 0 2.38.757 2.38 2.04v4.146h-1.154v-.853h-.095a2.042 2.042 0 01-1.823.953 1.833 1.833 0 01-2.023-1.816zm3.901-.519v-.507l-1.482.094c-.836.056-1.215.34-1.215.876 0 .546.474.864 1.126.864a1.43 1.43 0 001.571-1.327zm4.373-2.825v5.06h-1.198v-6.07h3.996v1.009h-2.798zm10.056 2.023c0 1.928-.975 3.137-2.508 3.137a1.978 1.978 0 01-1.867-1.02h-.095v2.938h-1.198V13.74h1.153v1.003h.09a2.109 2.109 0 011.906-1.104c1.543 0 2.519 1.204 2.519 3.133zm-1.232 0c0-1.282-.607-2.057-1.622-2.057-1.008 0-1.638.791-1.638 2.062 0 1.265.63 2.057 1.633 2.057 1.02 0 1.627-.775 1.627-2.062zm2.827 5.211v-1.032c.13.017.26.024.391.023a1.038 1.038 0 001.098-.847l.09-.296-2.198-6.091h1.305l1.522 4.82h.094l1.517-4.82h1.27l-2.263 6.32c-.518 1.477-1.092 1.95-2.33 1.95-.1 0-.384-.01-.496-.027zm6.023-3.896h1.193c.117.535.618.814 1.32.814.798 0 1.287-.352 1.287-.898 0-.585-.44-.864-1.287-.864h-.908v-.93h.892c.724 0 1.093-.279 1.093-.786 0-.446-.357-.786-1.093-.786-.67 0-1.16.284-1.237.763h-1.154a2.127 2.127 0 012.391-1.777c1.443 0 2.268.652 2.268 1.677a1.247 1.247 0 01-.958 1.243v.095a1.362 1.362 0 011.187 1.365c0 1.154-.982 1.917-2.481 1.917-1.325 0-2.402-.607-2.513-1.833zm6.718 1.722v-6.07h1.188v4.175h.094l2.797-4.174h1.188v6.069h-1.188v-4.197h-.09l-2.801 4.197h-1.188zm11.808-5.06h-1.91v5.06h-1.2v-5.06h-1.911v-1.01h5.021v1.01zm6.452 3.421a2.465 2.465 0 01-2.631 1.756 2.762 2.762 0 01-2.127-.917 2.765 2.765 0 01-.677-2.215 2.812 2.812 0 01.096-1.186 2.811 2.811 0 011.538-1.743 2.806 2.806 0 011.165-.242c1.688 0 2.708 1.153 2.708 3.06v.417h-4.285v.067a1.61 1.61 0 00.965 1.61c.206.088.428.132.651.129a1.453 1.453 0 001.443-.736h1.154zm-4.213-1.956h3.064a1.476 1.476 0 00-.398-1.116 1.474 1.474 0 00-1.095-.456 1.553 1.553 0 00-1.571 1.572zm9.29-2.475h2.737c1.187 0 1.883.602 1.883 1.544a1.307 1.307 0 01-1.025 1.282v.095a1.385 1.385 0 011.298 1.399c0 1.059-.797 1.75-2.129 1.75h-2.764v-6.07zm1.187.92v1.572h1.188c.724 0 1.07-.279 1.07-.792 0-.473-.302-.78-.937-.78h-1.321zm0 2.452v1.779h1.421c.708 0 1.087-.313 1.087-.887 0-.607-.429-.892-1.237-.892h-1.271z" fill="#000"/>
  </g>
  <defs>
    <clipPath id="clip0">
      <path fill="#fff" d="M0 0h161.286v53.913H0z"/>
    </clipPath>
  </defs>
</svg>
