<svg width="272" height="343" viewBox="0 0 272 343" fill="none" xmlns="http://www.w3.org/2000/svg">
<mask id="mask0" mask-type="alpha" maskUnits="userSpaceOnUse" x="0" y="2" width="272" height="339">
<path d="M0 70.3361C0 66.6237 2.55396 63.3991 6.16769 62.5488L262.168 2.31349C267.189 1.13192 272 4.94203 272 10.1008V251.733C272 263.587 265.448 274.469 254.972 280.015L143.486 339.037C138.803 341.516 133.197 341.516 128.514 339.037L17.0276 280.015C6.55192 274.469 0 263.587 0 251.733V70.3361Z" fill="white"/>
</mask>
<g mask="url(#mask0)">
<path d="M135.052 341.366L134.584 342.25L131.751 340.751L132.219 339.867L129.386 338.367L128.918 339.251L126.086 337.751L126.554 336.867L123.721 335.368L123.253 336.252L120.42 334.752L120.888 333.868L118.055 332.368L117.588 333.252L114.755 331.753L115.223 330.869L112.39 329.369L111.922 330.253L109.09 328.753L109.557 327.87L106.725 326.37L106.257 327.254L103.424 325.754L103.892 324.87L101.059 323.371L100.592 324.254L97.7589 322.755L98.2267 321.871L95.3941 320.371L94.9262 321.255L92.0935 319.755L92.5614 318.872L89.7287 317.372L89.2608 318.256L86.4281 316.756L86.896 315.872L84.0634 314.373L83.5955 315.256L80.7628 313.757L81.2307 312.873L78.398 311.373L77.9301 312.257L75.0974 310.757L75.5653 309.874L72.7327 308.374L72.2648 309.258L69.4321 307.758L69.9 306.874L67.0673 305.375L66.5994 306.259L63.7667 304.759L64.2346 303.875L61.4019 302.375L60.9341 303.259L58.1014 301.76L58.5693 300.876L55.7366 299.376L55.2687 300.26L52.436 298.76L52.9039 297.876L50.0712 296.377L49.6033 297.261L46.7707 295.761L47.2386 294.877L44.4059 293.378L43.938 294.261L41.1053 292.762L41.5732 291.878L38.7405 290.378L38.2726 291.262L35.44 289.762L35.9078 288.879L33.0752 287.379L32.6073 288.263L29.7746 286.763L30.2425 285.879L27.4098 284.38L26.9419 285.263L24.1093 283.764L24.5771 282.88L21.7445 281.38L21.2766 282.264L18.4439 280.764L18.9118 279.881L17.4954 279.131C16.9984 278.868 16.5104 278.592 16.0319 278.305L15.517 279.162C14.5196 278.563 13.5619 277.914 12.6464 277.218L13.2511 276.422C12.355 275.742 11.5007 275.016 10.6906 274.249L10.0032 274.976C9.16104 274.178 8.36519 273.338 7.61834 272.459L8.38035 271.812C7.65394 270.957 6.97536 270.064 6.34724 269.139L5.51969 269.7C4.8705 268.743 4.27354 267.752 3.73153 266.73L4.61489 266.261C4.09047 265.273 3.61916 264.256 3.20359 263.214L2.27474 263.584C1.84748 262.513 1.47727 261.416 1.16681 260.299L2.1303 260.031C1.83166 258.957 1.59009 257.862 1.40811 256.752L0.421279 256.914C0.235341 255.779 0.10968 254.629 0.0468369 253.467L1.04538 253.413C1.01523 252.856 1 252.296 1 251.733V250.114H0V246.875H1V243.635H0V240.396H1V237.157H0V233.918H1V230.678H0V227.439H1V224.2H0V220.961H1V217.721H0V214.482H1V211.243H0V208.004H1V204.764H0V201.525H1V198.286H0V195.047H1V191.807H0V188.568H1V185.329H0V182.09H1V178.851H0V175.611H1V172.372H0V169.133H1V165.894H0V162.654H1V159.415H0V156.176H1V152.937H0V149.697H1V146.458H0V143.219H1V139.98H0V136.74H1V133.501H0V130.262H1V127.023H0V123.784H1V120.544H0V117.305H1V114.066H0V110.827H1V107.587H0V104.348H1V101.109H0V97.8696H1V94.6304H0V91.3912H1V88.1519H0V84.9127H1V81.6734H0V78.4342H1V75.195H0V71.9557H1V70.3361C1 69.9392 1.03331 69.5491 1.09744 69.1687L0.111348 69.0024C0.262161 68.1078 0.562326 67.2583 0.988228 66.4838L1.86447 66.9657C2.24191 66.2794 2.73226 65.6602 3.3139 65.1356L2.64414 64.3931C3.30046 63.8011 4.05861 63.3144 4.89497 62.9626L5.28263 63.8844C5.63825 63.7349 6.01035 63.6131 6.39672 63.5222L7.95747 63.155L7.72843 62.1815L10.8504 61.447L11.0794 62.4204L14.2014 61.6858L13.9723 60.7124L17.0943 59.9778L17.3233 60.9512L20.4453 60.2167L20.2163 59.2432L23.3382 58.5087L23.5673 59.4821L26.6892 58.7475L26.4602 57.7741L29.5821 57.0395L29.8112 58.0129L32.9331 57.2783L32.7041 56.3049L35.826 55.5703L36.0551 56.5438L39.177 55.8092L38.948 54.8358L42.07 54.1012L42.299 55.0746L45.421 54.34L45.1919 53.3666L48.3139 52.632L48.5429 53.6054L51.6649 52.8709L51.4358 51.8975L54.5578 51.1629L54.7868 52.1363L57.9088 51.4017L57.6797 50.4283L60.8017 49.6937L61.0307 50.6671L64.1527 49.9326L63.9237 48.9591L67.0456 48.2246L67.2747 49.198L70.3966 48.4634L70.1676 47.49L73.2895 46.7554L73.5186 47.7288L76.6405 46.9942L76.4115 46.0208L79.5334 45.2862L79.7625 46.2597L82.8845 45.5251L82.6554 44.5517L85.7774 43.8171L86.0064 44.7905L89.1284 44.0559L88.8993 43.0825L92.0213 42.3479L92.2503 43.3213L95.3723 42.5868L95.1432 41.6134L98.2652 40.8788L98.4942 41.8522L101.616 41.1176L101.387 40.1442L104.509 39.4096L104.738 40.383L107.86 39.6485L107.631 38.675L110.753 37.9405L110.982 38.9139L114.104 38.1793L113.875 37.2059L116.997 36.4713L117.226 37.4447L120.348 36.7101L120.119 35.7367L123.241 35.0021L123.47 35.9756L126.592 35.241L126.363 34.2676L129.485 33.533L129.714 34.5064L132.836 33.7718L132.607 32.7984L135.729 32.0638L135.958 33.0373L139.08 32.3027L138.851 31.3293L141.973 30.5947L142.202 31.5681L145.324 30.8335L145.095 29.8601L148.216 29.1255L148.446 30.0989L151.567 29.3644L151.338 28.391L154.46 27.6564L154.689 28.6298L157.811 27.8952L157.582 26.9218L160.704 26.1872L160.933 27.1606L164.055 26.4261L163.826 25.4526L166.948 24.7181L167.177 25.6915L170.299 24.9569L170.07 23.9835L173.192 23.2489L173.421 24.2223L176.543 23.4878L176.314 22.5143L179.436 21.7798L179.665 22.7532L182.787 22.0186L182.558 21.0452L185.68 20.3106L185.909 21.284L189.031 20.5495L188.802 19.576L191.924 18.8415L192.153 19.8149L195.275 19.0803L195.046 18.1069L198.168 17.3723L198.397 18.3457L201.519 17.6111L201.29 16.6377L204.412 15.9032L204.641 16.8766L207.763 16.142L207.534 15.1686L210.655 14.434L210.885 15.4074L214.006 14.6728L213.777 13.6994L216.899 12.9648L217.128 13.9383L220.25 13.2037L220.021 12.2303L223.143 11.4957L223.372 12.4691L226.494 11.7345L226.265 10.7611L229.387 10.0265L229.616 11L232.738 10.2654L232.509 9.29197L235.631 8.55739L235.86 9.53081L238.982 8.79623L238.753 7.82281L241.875 7.08824L242.104 8.06165L245.226 7.32708L244.997 6.35366L248.119 5.61908L248.348 6.5925L251.47 5.85792L251.241 4.88451L254.363 4.14993L254.592 5.12335L257.714 4.38877L257.485 3.41535L260.607 2.68078L260.836 3.65419L262.397 3.28691C262.925 3.1626 263.449 3.10154 263.962 3.09747L263.954 2.0975C265.189 2.08771 266.376 2.36684 267.441 2.87672L267.01 3.77872C267.962 4.23438 268.803 4.90082 269.465 5.72314L270.244 5.09629C270.984 6.01646 271.528 7.10802 271.801 8.31277L270.826 8.53408C270.939 9.03421 271 9.55808 271 10.1008V11.6903H272V14.8697H271V18.0491H272V21.2285H271V24.4078H272V27.5872H271V30.7666H272V33.946H271V37.1254H272V40.3048H271V43.4841H272V46.6635H271V49.8429H272V53.0223H271V56.2017H272V59.3811H271V62.5604H272V65.7398H271V68.9192H272V72.0986H271V75.278H272V78.4574H271V81.6367H272V84.8161H271V87.9955H272V91.1749H271V94.3543H272V97.5336H271V100.713H272V103.892H271V107.072H272V110.251H271V113.431H272V116.61H271V119.789H272V122.969H271V126.148H272V129.327H271V132.507H272V135.686H271V138.866H272V142.045H271V145.224H272V148.404H271V151.583H272V154.762H271V157.942H272V161.121H271V164.301H272V167.48H271V170.659H272V173.839H271V177.018H272V180.197H271V183.377H272V186.556H271V189.736H272V192.915H271V196.094H272V199.274H271V202.453H272V205.632H271V208.812H272V211.991H271V215.171H272V218.35H271V221.529H272V224.709H271V227.888H272V231.067H271V234.247H272V237.426H271V240.606H272V243.785H271V246.964H272V250.144H271V251.733C271 252.296 270.985 252.856 270.955 253.413L271.953 253.467C271.89 254.629 271.765 255.779 271.579 256.914L270.592 256.752C270.41 257.862 270.168 258.957 269.87 260.031L270.833 260.299C270.523 261.416 270.153 262.513 269.725 263.584L268.796 263.214C268.381 264.256 267.91 265.273 267.385 266.261L268.268 266.73C267.726 267.752 267.129 268.743 266.48 269.7L265.653 269.139C265.025 270.064 264.346 270.957 263.62 271.812L264.382 272.459C263.635 273.338 262.839 274.178 261.997 274.976L261.309 274.249C260.499 275.016 259.645 275.742 258.749 276.422L259.354 277.218C258.438 277.914 257.48 278.563 256.483 279.162L255.968 278.305C255.49 278.592 255.002 278.868 254.505 279.131L253.088 279.881L253.556 280.764L250.723 282.264L250.256 281.38L247.423 282.88L247.891 283.764L245.058 285.263L244.59 284.38L241.757 285.879L242.225 286.763L239.393 288.263L238.925 287.379L236.092 288.879L236.56 289.762L233.727 291.262L233.259 290.378L230.427 291.878L230.895 292.762L228.062 294.261L227.594 293.378L224.761 294.877L225.229 295.761L222.397 297.261L221.929 296.377L219.096 297.876L219.564 298.76L216.731 300.26L216.263 299.376L213.431 300.876L213.899 301.76L211.066 303.259L210.598 302.375L207.765 303.875L208.233 304.759L205.401 306.259L204.933 305.375L202.1 306.874L202.568 307.758L199.735 309.258L199.267 308.374L196.435 309.874L196.903 310.757L194.07 312.257L193.602 311.373L190.769 312.873L191.237 313.757L188.405 315.256L187.937 314.373L185.104 315.872L185.572 316.756L182.739 318.256L182.271 317.372L179.439 318.872L179.906 319.755L177.074 321.255L176.606 320.371L173.773 321.871L174.241 322.755L171.408 324.254L170.941 323.371L168.108 324.87L168.576 325.754L165.743 327.254L165.275 326.37L162.443 327.87L162.91 328.753L160.078 330.253L159.61 329.369L156.777 330.869L157.245 331.753L154.412 333.252L153.945 332.368L151.112 333.868L151.58 334.752L148.747 336.252L148.279 335.368L145.446 336.867L145.914 337.751L143.082 339.251L142.614 338.367L139.781 339.867L140.249 340.751L137.416 342.25L136.948 341.366L136 341.868L135.052 341.366Z" stroke="#3C3C3C" stroke-width="2" stroke-dasharray="3.2 3.2"/>
<path d="M0 274L132.771 332.575C134.828 333.483 137.172 333.483 139.229 332.575L272 274V343H0V274Z" fill="url(#paint0_linear)"/>
<path d="M270.418 63.2791L267.256 63.8372L267.169 63.3448L264.006 63.903L264.093 64.3954L260.93 64.9535L260.843 64.4611L257.68 65.0193L257.767 65.5117L254.604 66.0698L254.518 65.5774L251.355 66.1356L251.442 66.6279L248.279 67.1861L248.192 66.6937L245.029 67.2518L245.116 67.7442L241.953 68.3024L241.866 67.81L238.704 68.3681L238.791 68.8605L235.628 69.4186L235.541 68.9262L232.378 69.4844L232.465 69.9768L229.302 70.5349L229.215 70.0425L226.052 70.6007L226.139 71.093L222.977 71.6512L222.89 71.1588L219.727 71.7169L219.814 72.2093L216.651 72.7675L216.564 72.2751L213.401 72.8332L213.488 73.3256L210.325 73.8837L210.239 73.3913L207.076 73.9495L207.163 74.4419L204 75L203.913 74.5076L200.75 75.0658L200.837 75.5582L197.674 76.1163L197.587 75.6239L194.425 76.182L194.512 76.6744L191.349 77.2326L191.262 76.7402L188.099 77.2983L188.186 77.7907L185.023 78.3488L184.936 77.8565L181.774 78.4146L181.86 78.907L178.698 79.4651L178.611 78.9727L175.448 79.5309L175.535 80.0233L172.372 80.5814L172.285 80.089L169.122 80.6471L169.209 81.1395L166.046 81.6977L165.96 81.2053L162.797 81.7634L162.884 82.2558L159.721 82.814L159.634 82.3216L156.471 82.8797L156.558 83.3721L153.395 83.9302L153.308 83.4378L150.146 83.996L150.233 84.4884L147.07 85.0465L146.983 84.5541L143.82 85.1123L143.907 85.6047L140.744 86.1628L140.657 85.6704L137.495 86.2285L137.581 86.7209L134.419 87.2791L134.332 86.7867L131.169 87.3448L131.256 87.8372L128.093 88.3953L128.006 87.903L124.843 88.4611L124.93 88.9535L121.767 89.5116L121.681 89.0192L118.518 89.5774L118.605 90.0698L115.442 90.6279L115.355 90.1355L112.192 90.6936L112.279 91.186L109.116 91.7442L109.029 91.2518L105.867 91.8099L105.954 92.3023L102.791 92.8605L102.704 92.3681L99.541 92.9262L99.6279 93.4186L96.4651 93.9767L96.3783 93.4843L93.2155 94.0425L93.3024 94.5349L90.1396 95.093L90.0527 94.6006L86.8899 95.1588L86.9768 95.6512L83.814 96.2093L83.7271 95.7169L80.5643 96.275L80.6512 96.7674L77.4884 97.3256L77.4015 96.8332L74.2387 97.3913L74.3256 97.8837L71.1628 98.4419L71.0759 97.9495L67.9131 98.5076L68 99L64.8372 99.5581L64.7503 99.0657L61.5875 99.6239L61.6744 100.116L58.5116 100.674L58.4247 100.182L55.262 100.74L55.3489 101.233L52.1861 101.791L52.0992 101.298L48.9364 101.856L49.0233 102.349L45.8605 102.907L45.7736 102.415L42.6108 102.973L42.6977 103.465L39.5349 104.023L39.448 103.531L36.2852 104.089L36.3721 104.581L33.2093 105.14L33.1224 104.647L29.9596 105.205L30.0465 105.698L26.8837 106.256L26.7968 105.763L23.634 106.322L23.7209 106.814L20.5581 107.372L20.4712 106.88L17.3085 107.438L17.3953 107.93L14.2326 108.488L14.1457 107.996L10.9829 108.554L11.0698 109.047L7.90698 109.605L7.82008 109.112L4.65729 109.67L4.74419 110.163L1.5814 110.721L1.4945 110.229L0.5 110.404V109.306H0V105.917H0.5V102.528H0V99.1397H0.5V95.751H0V92.3624H0.5V88.9737H0V85.5851H0.5V82.1964H0V78.8078H0.5V75.4191H0V72.0304H0.5V70.3361C0.5 69.9112 0.535666 69.4933 0.604392 69.0856L0.111348 69.0024C0.262162 68.1078 0.562326 67.2583 0.988228 66.4838L1.42635 66.7248C1.83069 65.9895 2.35593 65.3263 2.97902 64.7644L2.64414 64.3931C3.30046 63.8011 4.05861 63.3144 4.89497 62.9626L5.0888 63.4235C5.46994 63.2632 5.86856 63.1328 6.28221 63.0355L7.84295 62.6683L7.72843 62.1815L10.8504 61.447L10.9649 61.9337L14.0869 61.1991L13.9723 60.7124L17.0943 59.9778L17.2088 60.4645L20.3308 59.7299L20.2163 59.2432L23.3382 58.5087L23.4527 58.9954L26.5747 58.2608L26.4602 57.7741L29.5821 57.0395L29.6966 57.5262L32.8186 56.7916L32.7041 56.3049L35.826 55.5703L35.9406 56.0571L39.0625 55.3225L38.948 54.8358L42.07 54.1012L42.1845 54.5879L45.3064 53.8533L45.1919 53.3666L48.3139 52.632L48.4284 53.1187L51.5503 52.3842L51.4358 51.8975L54.5578 51.1629L54.6723 51.6496L57.7943 50.915L57.6797 50.4283L60.8017 49.6937L60.9162 50.1804L64.0382 49.4458L63.9237 48.9591L67.0456 48.2246L67.1601 48.7113L70.2821 47.9767L70.1676 47.49L73.2895 46.7554L73.4041 47.2421L76.526 46.5075L76.4115 46.0208L79.5334 45.2862L79.648 45.773L82.7699 45.0384L82.6554 44.5517L85.7774 43.8171L85.8919 44.3038L89.0138 43.5692L88.8993 43.0825L92.0213 42.3479L92.1358 42.8346L95.2578 42.1001L95.1432 41.6134L98.2652 40.8788L98.3797 41.3655L101.502 40.6309L101.387 40.1442L104.509 39.4096L104.624 39.8963L107.746 39.1617L107.631 38.675L110.753 37.9405L110.868 38.4272L113.99 37.6926L113.875 37.2059L116.997 36.4713L117.111 36.958L120.233 36.2234L120.119 35.7367L123.241 35.0021L123.355 35.4889L126.477 34.7543L126.363 34.2676L129.485 33.533L129.599 34.0197L132.721 33.2851L132.607 32.7984L135.729 32.0638L135.843 32.5505L138.965 31.816L138.851 31.3293L141.973 30.5947L142.087 31.0814L145.209 30.3468L145.095 29.8601L148.216 29.1255L148.331 29.6122L151.453 28.8777L151.338 28.391L154.46 27.6564L154.575 28.1431L157.697 27.4085L157.582 26.9218L160.704 26.1872L160.819 26.6739L163.941 25.9394L163.826 25.4526L166.948 24.7181L167.063 25.2048L170.185 24.4702L170.07 23.9835L173.192 23.2489L173.307 23.7356L176.429 23.0011L176.314 22.5143L179.436 21.7798L179.551 22.2665L182.672 21.5319L182.558 21.0452L185.68 20.3106L185.794 20.7973L188.916 20.0627L188.802 19.576L191.924 18.8415L192.038 19.3282L195.16 18.5936L195.046 18.1069L198.168 17.3723L198.282 17.859L201.404 17.1244L201.29 16.6377L204.412 15.9032L204.526 16.3899L207.648 15.6553L207.534 15.1686L210.655 14.434L210.77 14.9207L213.892 14.1861L213.777 13.6994L216.899 12.9648L217.014 13.4516L220.136 12.717L220.021 12.2303L223.143 11.4957L223.258 11.9824L226.38 11.2478L226.265 10.7611L229.387 10.0265L229.502 10.5133L232.624 9.77867L232.509 9.29196L235.631 8.55739L235.746 9.0441L238.868 8.30952L238.753 7.82281L241.875 7.08824L241.99 7.57494L245.111 6.84037L244.997 6.35366L248.119 5.61908L248.233 6.10579L251.355 5.37121L251.241 4.88451L254.363 4.14993L254.477 4.63664L257.599 3.90206L257.485 3.41536L260.607 2.68078L260.721 3.16748L262.282 2.8002C262.847 2.66734 263.408 2.60185 263.958 2.59749L263.954 2.0975C265.189 2.08771 266.376 2.36684 267.441 2.87672L267.226 3.32772C268.245 3.81567 269.146 4.52912 269.854 5.40972L270.244 5.09629C270.984 6.01647 271.528 7.10802 271.801 8.31277L271.314 8.42342C271.435 8.95976 271.5 9.52074 271.5 10.1008V11.7539H272V15.0601H271.5V18.3663H272V21.6725H271.5V24.9787H272V28.2849H271.5V31.5911H272V34.8973H271.5V38.2035H272V41.5097H271.5V44.8159H272V48.1221H271.5V51.4283H272V54.7345H271.5V58.0407H272V61.3469H271.5V62.5805L270.332 62.7867L270.418 63.2791Z" stroke="url(#paint1_linear)" stroke-dasharray="3.2 3.2"/>
</g>
<defs>
<linearGradient id="paint0_linear" x1="136" y1="274" x2="136" y2="343" gradientUnits="userSpaceOnUse">
<stop stop-color="#3F3F3F"/>
<stop offset="1" stop-color="#373737"/>
</linearGradient>
<linearGradient id="paint1_linear" x1="136" y1="0" x2="136" y2="111" gradientUnits="userSpaceOnUse">
<stop stop-color="#3F3F3F"/>
<stop offset="1" stop-color="#373737"/>
</linearGradient>
</defs>
</svg>
