<svg width="312" height="359" viewBox="0 0 312 359" fill="none" xmlns="http://www.w3.org/2000/svg">
<mask id="mask0" mask-type="alpha" maskUnits="userSpaceOnUse" x="0" y="1" width="312" height="357">
<path d="M0 70.5255C0 66.7269 2.67129 63.452 6.39245 62.6887L302.392 1.97079C307.354 0.953114 312 4.74314 312 9.8076V266.525C312 279.007 304.743 290.35 293.41 295.58L162.705 355.905C158.451 357.869 153.549 357.869 149.295 355.905L18.5901 295.58C7.25732 290.35 0 279.007 0 266.525V70.5255Z" fill="white"/>
</mask>
<g mask="url(#mask0)">
<g filter="url(#filter0_i)">
<path d="M0 70.5255C0 66.7269 2.67129 63.452 6.39245 62.6887L302.392 1.97079C307.354 0.953114 312 4.74314 312 9.8076V266.525C312 279.007 304.743 290.35 293.41 295.58L156 359L18.5901 295.58C7.25732 290.35 0 279.007 0 266.525V70.5255Z" fill="url(#paint0_linear)"/>
</g>
<path d="M0 290L153.128 348.895C154.977 349.606 157.023 349.606 158.872 348.895L312 290V359H0V290Z" fill="url(#paint1_linear)"/>
<g filter="url(#filter1_d)">
<path d="M0 70.5256C0 66.7269 2.67129 63.452 6.39245 62.6887L302.392 1.97079C307.354 0.953114 312 4.74314 312 9.8076V63L0 111V70.5256Z" fill="url(#paint2_linear)"/>
</g>
</g>
<defs>
<filter id="filter0_i" x="0" y="1.80481" width="312" height="357.195" filterUnits="userSpaceOnUse" color-interpolation-filters="sRGB">
<feFlood flood-opacity="0" result="BackgroundImageFix"/>
<feBlend mode="normal" in="SourceGraphic" in2="BackgroundImageFix" result="shape"/>
<feColorMatrix in="SourceAlpha" type="matrix" values="0 0 0 0 0 0 0 0 0 0 0 0 0 0 0 0 0 0 127 0" result="hardAlpha"/>
<feOffset dy="-2"/>
<feComposite in2="hardAlpha" operator="arithmetic" k2="-1" k3="1"/>
<feColorMatrix type="matrix" values="0 0 0 0 1 0 0 0 0 0.886275 0 0 0 0 0.482353 0 0 0 1 0"/>
<feBlend mode="normal" in2="shape" result="effect1_innerShadow"/>
</filter>
<filter id="filter1_d" x="0" y="1.80481" width="312" height="113.195" filterUnits="userSpaceOnUse" color-interpolation-filters="sRGB">
<feFlood flood-opacity="0" result="BackgroundImageFix"/>
<feColorMatrix in="SourceAlpha" type="matrix" values="0 0 0 0 0 0 0 0 0 0 0 0 0 0 0 0 0 0 127 0"/>
<feOffset dy="4"/>
<feColorMatrix type="matrix" values="0 0 0 0 0.645833 0 0 0 0 0.523901 0 0 0 0 0.191059 0 0 0 1 0"/>
<feBlend mode="normal" in2="BackgroundImageFix" result="effect1_dropShadow"/>
<feBlend mode="normal" in="SourceGraphic" in2="effect1_dropShadow" result="shape"/>
</filter>
<linearGradient id="paint0_linear" x1="156" y1="0" x2="156" y2="359" gradientUnits="userSpaceOnUse">
<stop stop-color="white"/>
<stop offset="0.0625" stop-color="white"/>
<stop offset="1" stop-color="#ECECEC"/>
</linearGradient>
<linearGradient id="paint1_linear" x1="156" y1="320.5" x2="156" y2="359" gradientUnits="userSpaceOnUse">
<stop stop-color="#FFE27B"/>
<stop offset="1" stop-color="#D8B14D"/>
</linearGradient>
<linearGradient id="paint2_linear" x1="156" y1="0" x2="156" y2="111" gradientUnits="userSpaceOnUse">
<stop stop-color="#FFE27B"/>
<stop offset="1" stop-color="#D8B14D"/>
</linearGradient>
</defs>
</svg>
