<svg width="162" height="54" fill="none" xmlns="http://www.w3.org/2000/svg">
  <g clip-path="url(#clip0)">
    <path d="M148.859 0H12.887c-.496 0-.986 0-1.48.003-.414.003-.824.01-1.242.017-.908.01-1.813.09-2.709.238a9.026 9.026 0 00-2.569.845 8.7 8.7 0 00-3.78 3.774 8.88 8.88 0 00-.845 2.565C.112 8.334.031 9.236.02 10.14c-.013.414-.014.828-.02 1.242v31.154c.006.418.007.824.02 1.242.01.904.092 1.807.242 2.699.149.893.434 1.759.845 2.566.41.806.947 1.541 1.592 2.176a8.481 8.481 0 002.188 1.589c.81.41 1.675.696 2.57.85.895.146 1.8.226 2.708.238.418.01.828.014 1.242.014.494.003.984.003 1.48.003h135.972c.486 0 .979 0 1.465-.002.412 0 .834-.006 1.246-.015a17.99 17.99 0 002.703-.238 9.208 9.208 0 002.579-.85 8.491 8.491 0 002.186-1.59 8.594 8.594 0 001.597-2.175c.408-.808.69-1.674.837-2.566.151-.892.235-1.794.251-2.699.005-.418.005-.824.005-1.242.011-.49.011-.977.011-1.475V12.853c0-.493 0-.983-.011-1.471 0-.414 0-.828-.005-1.242-.016-.904-.1-1.806-.251-2.698a8.898 8.898 0 00-.837-2.565 8.724 8.724 0 00-3.783-3.774 9.157 9.157 0 00-2.579-.845A17.668 17.668 0 00151.57.02c-.412-.007-.834-.015-1.246-.017C149.838 0 149.345 0 148.859 0z" fill="#000"/>
    <path d="M11.56 52.563c-.412 0-.813-.006-1.22-.015a17.226 17.226 0 01-2.522-.218 7.974 7.974 0 01-2.234-.734 7.29 7.29 0 01-1.884-1.36 7.127 7.127 0 01-1.377-1.87 7.621 7.621 0 01-.732-2.22 16.502 16.502 0 01-.225-2.51 143.46 143.46 0 01-.02-1.223v-30.93s.012-.926.02-1.198c.01-.84.085-1.678.224-2.507a7.667 7.667 0 01.733-2.225 7.197 7.197 0 011.369-1.872 7.504 7.504 0 011.891-1.369 7.894 7.894 0 012.23-.728 17.02 17.02 0 012.53-.22l1.217-.016h138.61l1.232.017c.84.01 1.677.083 2.506.218a8.057 8.057 0 012.254.733 7.513 7.513 0 013.257 3.24c.352.696.595 1.44.722 2.208.14.836.218 1.68.234 2.527.004.38.004.786.004 1.192.011.502.011.98.011 1.462v28.022c0 .486 0 .961-.011 1.44 0 .435 0 .834-.005 1.245a17.063 17.063 0 01-.23 2.481 7.645 7.645 0 01-.729 2.236 7.33 7.33 0 01-1.37 1.856 7.298 7.298 0 01-1.887 1.369 7.943 7.943 0 01-2.25.736 17.02 17.02 0 01-2.521.218c-.395.01-.809.015-1.21.015l-1.462.002-137.156-.002z" fill="#000"/>
    <path d="M10.781 10.783v35.043l17.522-17.521-17.522-17.522z" fill="url(#paint0_linear)"/>
    <path d="M32.346 23.632l-6.862-4.088-14.703-8.761v.126l17 17.395 4.566-4.672z" fill="url(#paint1_linear)"/>
    <path d="M10.782 44.352v.126l14.703-8.761 6.862-4.088-4.565-4.673-17 17.396z" fill="url(#paint2_linear)"/>
    <path d="M32.767 22.913l-4.464 4.718 4.464 4.717 7.667-4.718-7.667-4.717z" fill="url(#paint3_linear)"/>
    <path d="M119.21 38.782c-.65 0-1.243-.12-1.781-.364a3.36 3.36 0 01-1.353-1.12h-.109c.073.59.109 1.15.109 1.678v4.154h-1.512V28.5h1.23l.209 1.382h.073c.389-.553.842-.952 1.358-1.198.516-.245 1.109-.368 1.776-.368 1.324 0 2.346.457 3.066 1.372.719.916 1.08 2.2 1.08 3.852 0 1.66-.366 2.947-1.098 3.866-.733.917-1.748 1.376-3.048 1.376zm-.218-9.167c-1.021 0-1.758.285-2.214.857-.456.571-.69 1.48-.702 2.727v.341c0 1.42.234 2.435.702 3.046.468.612 1.217.917 2.25.917.863 0 1.539-.353 2.027-1.059.489-.706.733-1.68.733-2.921 0-1.26-.243-2.226-.733-2.898-.488-.674-1.177-1.01-2.063-1.01zm7.864 8.983h-1.513V24.26h1.513v14.337zm8.694 0l-.301-1.437h-.073c-.497.633-.994 1.061-1.489 1.285-.495.224-1.114.336-1.854.336-.991 0-1.766-.258-2.327-.773-.562-.516-.843-1.25-.843-2.202 0-2.04 1.613-3.107 4.837-3.207l1.695-.056v-.626c0-.792-.169-1.377-.507-1.755-.337-.378-.875-.567-1.617-.567-.833 0-1.773.259-2.824.774l-.464-1.17a7.046 7.046 0 011.618-.635 6.938 6.938 0 011.763-.23c1.191 0 2.072.267 2.646.801.574.535.861 1.392.861 2.57V38.6h-1.12v-.001h-.001zm-3.416-1.078c.94 0 1.68-.26 2.218-.783.538-.521.807-1.253.807-2.193v-.912l-1.513.063c-1.203.043-2.069.233-2.601.568-.531.335-.796.855-.796 1.56 0 .553.164.975.496 1.263.332.29.793.434 1.389.434zm5.415-9.02h1.621l2.186 5.758c.48 1.314.778 2.264.893 2.848h.073c.079-.314.244-.85.496-1.61.251-.758 1.077-3.09 2.473-6.998h1.621l-4.291 11.5c-.425 1.135-.921 1.941-1.491 2.419-.567.475-1.265.713-2.09.713-.462 0-.916-.052-1.367-.156V41.75a5.22 5.22 0 001.122.11c1.038 0 1.778-.59 2.222-1.768l.555-1.437-4.023-10.155zm-45.777.356c.471.41 1.451 1.27 1.451 2.906 0 1.59-.858 2.345-1.716 3.054-.266.28-.573.582-.573 1.056 0 .472.306.731.53.925l.737.601c.9.796 1.717 1.529 1.717 3.013 0 2.023-1.86 4.067-5.375 4.067-2.965 0-4.395-1.484-4.395-3.078 0-.774.367-1.872 1.574-2.624 1.266-.817 2.984-.925 3.903-.99-.286-.388-.613-.797-.613-1.462 0-.366.103-.582.205-.84-.225.022-.45.043-.654.043-2.166 0-3.392-1.7-3.392-3.377 0-.99.43-2.088 1.307-2.884 1.166-1.011 2.556-1.183 3.66-1.183h4.209l-1.308.774h-1.267zm-1.45 9.555c-.163-.022-.267-.022-.47-.022-.184 0-1.29.043-2.148.346-.45.17-1.758.687-1.758 2.216 0 1.526 1.412 2.625 3.599 2.625 1.96 0 3.004-.992 3.004-2.325 0-1.1-.674-1.678-2.228-2.84zm.592-4.09c.47-.495.51-1.183.51-1.57 0-1.55-.879-3.96-2.574-3.96-.532 0-1.104.28-1.432.712-.347.452-.45 1.032-.45 1.592 0 1.441.797 3.83 2.556 3.83.511 0 1.06-.258 1.39-.603zm-12.008 3.745c-3.244 0-4.979-2.664-4.979-5.07 0-2.816 2.183-5.22 5.286-5.22 2.998 0 4.876 2.47 4.876 5.07 0 2.534-1.856 5.22-5.183 5.22zm2.55-1.74c.49-.688.612-1.547.612-2.386 0-1.891-.856-5.5-3.386-5.5a2.759 2.759 0 00-1.837.732c-.795.751-.939 1.697-.939 2.621 0 2.126 1 5.627 3.47 5.627.795 0 1.61-.407 2.08-1.094zm-13.61 1.74c-3.244 0-4.98-2.664-4.98-5.07 0-2.816 2.185-5.22 5.287-5.22 2.999 0 4.876 2.47 4.876 5.07 0 2.534-1.857 5.22-5.183 5.22zm2.55-1.74c.49-.688.613-1.547.613-2.386 0-1.891-.858-5.5-3.388-5.5a2.76 2.76 0 00-1.836.732c-.796.751-.938 1.697-.938 2.621 0 2.126.999 5.627 3.469 5.627.796 0 1.611-.407 2.08-1.094zm-9.088 1.403l-2.934.713c-1.19.194-2.257.366-3.385.366-5.662 0-7.816-4.384-7.816-7.818 0-4.19 3.056-8.077 8.288-8.077 1.108 0 2.174.172 3.139.453 1.538.454 2.256 1.015 2.708 1.34l-1.704 1.706-.717.172.513-.865c-.697-.712-1.97-2.029-4.39-2.029-3.241 0-5.683 2.593-5.683 6.372 0 4.06 2.79 7.882 7.262 7.882 1.314 0 1.99-.28 2.606-.54v-3.476l-3.097.172 1.64-.929h4.35l-.533.54c-.145.13-.165.173-.206.345-.021.194-.04.822-.04 1.038l-.001 2.635zm37.271-.929c-.658-.061-.797-.183-.797-.982V24.25l.011-.132c.081-.715.28-.837.898-1.206h-2.85l-1.495.736h1.523v.01-.008 12.616c0 .407-.08.47-.538 1.082h3.528l.737-.448c-.34-.04-.68-.06-1.017-.101zm8.108.188c-.217.123-.435.265-.652.366-.655.305-1.327.385-1.921.385-.632 0-1.622-.041-2.633-.792-1.404-1.015-2.017-2.76-2.017-4.283 0-3.145 2.493-4.687 4.532-4.687.712 0 1.445.182 2.039.568.988.669 1.246 1.541 1.383 2.008l-4.649 1.929-1.524.122c.494 2.578 2.196 4.078 4.076 4.078 1.01 0 1.742-.365 2.415-.71l-1.049 1.016zm-1.859-6.049c.375-.142.573-.263.573-.547 0-.812-.891-1.746-1.96-1.746-.793 0-2.276.63-2.276 2.821 0 .345.039.71.059 1.076l3.604-1.604zm3.768-2.823v1.339h-.158v-1.34h-.433v-.138h1.023v.139h-.432zm1.781 1.339v-1.352h-.008l-.402 1.352h-.124l-.406-1.352h-.005v1.352h-.144v-1.478h.247l.368 1.194h.004l.363-1.194h.25v1.478h-.143zM50.223 14.316l.243-3.839h2.908v5.97h-3.732v-.046c.397-.468.516-1.126.581-2.085zm-1.498 3.423h5.851v1.688h1.386v-2.98h-1.066V9.193h-5.78l-.309 5.029c-.065 1.143-.26 1.848-.864 2.227h-.61v2.98h1.392V17.74zm11.108.124c1.842 0 3.039-1.226 3.039-3.263 0-2.032-1.209-3.27-3.039-3.27s-3.038 1.244-3.038 3.27c0 2.037 1.196 3.263 3.038 3.263zm0-1.166c-.936 0-1.54-.758-1.54-2.097 0-1.333.61-2.097 1.54-2.097.936 0 1.54.764 1.54 2.097 0 1.338-.604 2.097-1.54 2.097zm9.71-3.17c-.171-1.225-1.172-2.197-2.753-2.197-1.825 0-2.992 1.28-2.992 3.27 0 2.02 1.167 3.263 3.003 3.263 1.534 0 2.577-.87 2.755-2.185h-1.398c-.166.628-.634.995-1.345.995-.93 0-1.528-.776-1.528-2.073 0-1.274.592-2.073 1.522-2.073.735 0 1.185.438 1.339 1h1.398zm5.897-2.066h-5.325v1.137h1.931v5.141h1.463v-5.141h1.931V11.46zm1.738 8.612c1.434 0 2.127-.527 2.666-2.085l2.268-6.527H80.56l-1.48 5.022h-.024l-1.48-5.022h-1.612l2.233 6.284c.006.018-.083.332-.083.35-.166.58-.48.811-1.09.811-.088 0-.35-.006-.426-.024v1.167c.077.018.498.024.58.024zm9.936-2.334h1.475v-6.278h-5.538v6.278h1.469v-5.141h2.594v5.141zm7.04 0h1.469v-6.278h-1.47v2.476H91.5V11.46h-1.469v6.278h1.47v-2.665h2.653v2.665zm5.7.124c1.843 0 3.039-1.226 3.039-3.263 0-2.032-1.208-3.27-3.038-3.27-1.83 0-3.04 1.244-3.04 3.27 0 2.037 1.197 3.263 3.04 3.263zm0-1.166c-.935 0-1.54-.758-1.54-2.097 0-1.333.61-2.097 1.54-2.097.936 0 1.54.764 1.54 2.097 0 1.338-.604 2.097-1.54 2.097zm9.406-4.235c.598 0 .93.278.93.77 0 .52-.355.793-1.042.793h-1.078v-1.563h1.19zm-.024 2.5c.794 0 1.203.301 1.203.888 0 .574-.385.888-1.084.888h-1.285v-1.777h1.166zm-2.612 2.777h3.027c1.392 0 2.257-.705 2.257-1.812 0-.788-.557-1.368-1.38-1.475v-.047c.622-.107 1.101-.694 1.101-1.351 0-.995-.758-1.593-2.025-1.593h-2.98v6.278z" fill="#fff"/>
  </g>
  <defs>
    <linearGradient id="paint0_linear" x1="19.542" y1="10.783" x2="19.542" y2="45.827" gradientUnits="userSpaceOnUse">
      <stop stop-color="#207CB0"/>
      <stop offset=".376" stop-color="#3CB2BF"/>
      <stop offset=".796" stop-color="#58E9CE"/>
      <stop offset="1" stop-color="#63FFD4"/>
    </linearGradient>
    <linearGradient id="paint1_linear" x1="10.781" y1="19.544" x2="32.346" y2="19.544" gradientUnits="userSpaceOnUse">
      <stop stop-color="#4BC3AE"/>
      <stop offset="1" stop-color="#DEE999"/>
    </linearGradient>
    <linearGradient id="paint2_linear" x1="21.564" y1="26.956" x2="21.564" y2="44.479" gradientUnits="userSpaceOnUse">
      <stop stop-color="#EC403D"/>
      <stop offset=".384" stop-color="#C93B75"/>
      <stop offset=".799" stop-color="#A636AC"/>
      <stop offset="1" stop-color="#9934C2"/>
    </linearGradient>
    <linearGradient id="paint3_linear" x1="34.369" y1="22.913" x2="34.369" y2="32.348" gradientUnits="userSpaceOnUse">
      <stop stop-color="#F87"/>
      <stop offset=".612" stop-color="#FFB175"/>
      <stop offset="1" stop-color="#FFC774"/>
    </linearGradient>
    <clipPath id="clip0">
      <path fill="#fff" d="M0 0h161.739v53.913H0z"/>
    </clipPath>
  </defs>
</svg>
