<svg width="297" height="36" viewBox="0 0 297 36" fill="none" xmlns="http://www.w3.org/2000/svg">
<path d="M69.3668 3.49729C69.711 1.70021 71.283 0.40081 73.1128 0.40081H137.339C139.749 0.40081 141.554 2.60763 141.078 4.96966L136.337 28.4526C135.978 30.2322 134.414 31.5119 132.598 31.5119H68.6141C66.2199 31.5119 64.4177 29.3317 64.8681 26.9802L69.3668 3.49729Z" fill="#00C1FF"/>
<path d="M6.833 26.324C5.393 26.324 4.151 26.081 3.107 25.595C2.063 25.109 1.253 24.407 0.677 23.489L3.566 20.735C4.394 22.067 5.501 22.733 6.887 22.733C8.579 22.733 9.623 21.752 10.019 19.79L11.828 10.61H5.213L5.915 7.1H16.877L14.366 19.574C13.898 21.986 13.052 23.714 11.828 24.758C10.604 25.802 8.939 26.324 6.833 26.324ZM34.6434 11.474L31.7544 26H27.7584L28.0554 24.434C27.4254 25.028 26.7054 25.478 25.8954 25.784C25.0854 26.072 24.2304 26.216 23.3304 26.216C21.7464 26.216 20.4774 25.784 19.5234 24.92C18.5874 24.056 18.1194 22.841 18.1194 21.275C18.1194 20.681 18.1824 20.096 18.3084 19.52L19.9014 11.474H24.1134L22.5744 19.25C22.5024 19.592 22.4664 19.943 22.4664 20.303C22.4664 21.815 23.2764 22.571 24.8964 22.571C25.9584 22.571 26.8314 22.265 27.5154 21.653C28.2174 21.023 28.6944 20.087 28.9464 18.845L30.4314 11.474H34.6434ZM46.9966 11.258C48.6166 11.258 49.9036 11.69 50.8576 12.554C51.8116 13.4 52.2886 14.615 52.2886 16.199C52.2886 16.793 52.2256 17.378 52.0996 17.954L50.4796 26H46.2676L47.8336 18.224C47.9056 17.918 47.9416 17.585 47.9416 17.225C47.9416 16.469 47.7346 15.893 47.3206 15.497C46.9066 15.101 46.2856 14.903 45.4576 14.903C44.3776 14.903 43.4776 15.218 42.7576 15.848C42.0556 16.46 41.5786 17.387 41.3266 18.629L39.8686 26H35.6566L38.5456 11.474H42.5416L42.2176 13.04C43.5136 11.852 45.1066 11.258 46.9966 11.258ZM57.2135 11.474H61.3985L58.5095 26H54.3245L57.2135 11.474ZM60.0215 9.449C59.3015 9.449 58.7075 9.242 58.2395 8.828C57.7895 8.396 57.5645 7.874 57.5645 7.262C57.5645 6.542 57.8165 5.948 58.3205 5.48C58.8425 4.994 59.5175 4.751 60.3455 4.751C61.0835 4.751 61.6775 4.958 62.1275 5.372C62.5955 5.768 62.8295 6.263 62.8295 6.857C62.8295 7.631 62.5685 8.261 62.0465 8.747C61.5245 9.215 60.8495 9.449 60.0215 9.449Z" fill="#006FF2"/>
<path d="M80.0831 26.324C78.5891 26.324 77.1581 26.126 75.7901 25.73C74.4221 25.334 73.3241 24.83 72.4961 24.218L74.2781 20.843C75.1421 21.473 76.1141 21.959 77.1941 22.301C78.2741 22.643 79.3811 22.814 80.5151 22.814C81.7211 22.814 82.6751 22.616 83.3771 22.22C84.0791 21.824 84.4301 21.284 84.4301 20.6C84.4301 20.042 84.1511 19.619 83.5931 19.331C83.0351 19.025 82.1441 18.701 80.9201 18.359C79.6961 17.999 78.6971 17.657 77.9231 17.333C77.1491 16.991 76.4741 16.487 75.8981 15.821C75.3401 15.155 75.0611 14.273 75.0611 13.175C75.0611 11.897 75.4121 10.772 76.1141 9.8C76.8341 8.828 77.8421 8.081 79.1381 7.559C80.4521 7.037 81.9731 6.776 83.7011 6.776C84.9791 6.776 86.1851 6.92 87.3191 7.208C88.4531 7.478 89.4251 7.874 90.2351 8.396L88.5881 11.744C87.8861 11.258 87.0941 10.898 86.2121 10.664C85.3301 10.412 84.4121 10.286 83.4581 10.286C82.2161 10.286 81.2351 10.502 80.5151 10.934C79.7951 11.366 79.4351 11.924 79.4351 12.608C79.4351 13.022 79.5881 13.373 79.8941 13.661C80.2001 13.931 80.5871 14.156 81.0551 14.336C81.5231 14.498 82.1801 14.696 83.0261 14.93C84.2321 15.254 85.2221 15.587 85.9961 15.929C86.7701 16.253 87.4271 16.739 87.9671 17.387C88.5251 18.017 88.8041 18.854 88.8041 19.898C88.8041 21.194 88.4441 22.328 87.7241 23.3C87.0041 24.254 85.9871 25.001 84.6731 25.541C83.3591 26.063 81.8291 26.324 80.0831 26.324ZM96.1668 20.87C96.1308 21.014 96.1128 21.212 96.1128 21.464C96.1128 22.4 96.6258 22.868 97.6518 22.868C98.2098 22.868 98.7768 22.697 99.3528 22.355L99.9738 25.352C99.0378 25.928 97.8318 26.216 96.3558 26.216C94.9878 26.216 93.8898 25.856 93.0618 25.136C92.2338 24.416 91.8198 23.426 91.8198 22.166C91.8198 21.806 91.8648 21.383 91.9548 20.897L93.1158 15.038H90.8748L91.5228 11.798H93.7638L94.4658 8.261H98.6778L97.9758 11.798H101.594L100.946 15.038H97.3278L96.1668 20.87ZM119.359 11.474L116.47 26H112.474L112.744 24.569C111.538 25.667 110.053 26.216 108.289 26.216C107.155 26.216 106.111 25.955 105.157 25.433C104.203 24.911 103.438 24.164 102.862 23.192C102.304 22.202 102.025 21.041 102.025 19.709C102.025 18.107 102.376 16.667 103.078 15.389C103.798 14.093 104.77 13.085 105.994 12.365C107.218 11.627 108.568 11.258 110.044 11.258C112.276 11.258 113.851 11.987 114.769 13.445L115.147 11.474H119.359ZM109.585 22.733C110.413 22.733 111.151 22.535 111.799 22.139C112.447 21.725 112.951 21.158 113.311 20.438C113.671 19.718 113.851 18.89 113.851 17.954C113.851 16.964 113.554 16.181 112.96 15.605C112.384 15.029 111.574 14.741 110.53 14.741C109.702 14.741 108.964 14.948 108.316 15.362C107.668 15.758 107.164 16.316 106.804 17.036C106.444 17.756 106.264 18.584 106.264 19.52C106.264 20.51 106.552 21.293 107.128 21.869C107.722 22.445 108.541 22.733 109.585 22.733ZM126.094 20.87C126.058 21.014 126.04 21.212 126.04 21.464C126.04 22.4 126.553 22.868 127.579 22.868C128.137 22.868 128.704 22.697 129.28 22.355L129.901 25.352C128.965 25.928 127.759 26.216 126.283 26.216C124.915 26.216 123.817 25.856 122.989 25.136C122.161 24.416 121.747 23.426 121.747 22.166C121.747 21.806 121.792 21.383 121.882 20.897L123.043 15.038H120.802L121.45 11.798H123.691L124.393 8.261H128.605L127.903 11.798H131.521L130.873 15.038H127.255L126.094 20.87Z" fill="white"/>
<path d="M161.157 16.8711C162.234 16.8711 162.937 16.4756 163.86 14.8643L168.884 6.10449H167.5L164.043 12.3813H163.926L162.988 6.10449H161.736L163.018 13.9414L162.732 14.4761C162.19 15.4868 161.758 15.8018 161.23 15.8018C160.901 15.8018 160.615 15.7505 160.469 15.7065L160.249 16.7539C160.388 16.7905 160.784 16.8711 161.157 16.8711ZM172.748 13.0039C171.517 13.0039 170.697 12.0884 170.697 10.7188C170.697 8.55811 171.803 7.10059 173.429 7.10059C174.667 7.10059 175.414 8.01611 175.414 9.51758C175.414 11.4365 174.22 13.0039 172.748 13.0039ZM173.546 5.96533C171.092 5.96533 169.357 8.00146 169.357 10.8726C169.357 12.8062 170.675 14.1392 172.587 14.1392C174.996 14.1392 176.761 12.0591 176.761 9.21729C176.761 7.28369 175.458 5.96533 173.546 5.96533ZM186.081 6.10449H184.807L183.796 10.8506C183.532 12.103 182.624 13.0039 181.357 13.0039C180.324 13.0039 179.826 12.5352 179.826 11.5244C179.826 11.3413 179.87 10.9238 179.929 10.6382L180.888 6.10449H179.607L178.618 10.8213C178.552 11.1436 178.508 11.6123 178.508 11.8467C178.508 13.1504 179.431 14.1392 180.866 14.1392C182.053 14.1392 182.873 13.6118 183.313 12.9307H183.43L183.188 14H184.404L186.081 6.10449ZM186.89 14H188.172L189.198 9.18066C189.454 7.98682 190.304 7.10059 191.519 7.10059C192.574 7.10059 193.153 7.74512 193.153 8.69727C193.153 8.92432 193.116 9.18066 193.057 9.46631L192.091 14H193.372L194.383 9.24658C194.449 8.92432 194.486 8.6167 194.486 8.33838C194.486 7.08594 193.57 5.96533 192.054 5.96533C190.875 5.96533 190.15 6.58057 189.659 7.28369H189.542L189.791 6.10449H188.568L186.89 14ZM198.767 17.0249C200.817 17.0249 202.158 15.9922 202.502 14.3809L204.289 6.10449H203.066L202.758 7.56201H202.641C202.326 6.63184 201.286 5.96533 200.173 5.96533C197.939 5.96533 196.247 7.91357 196.247 10.7261C196.247 12.6084 197.514 13.8828 199.118 13.8828C200.114 13.8828 200.934 13.4946 201.506 12.6963H201.623L201.279 14.1611C201.037 15.1938 200.283 15.9336 198.869 15.9336C197.712 15.9336 197.016 15.4062 196.906 14.7764H195.566C195.661 15.9775 196.935 17.0249 198.767 17.0249ZM199.506 12.7695C198.312 12.7695 197.565 11.9419 197.565 10.5356C197.565 8.44092 198.701 7.10059 200.268 7.10059C201.506 7.10059 202.297 7.94287 202.297 9.2832C202.297 11.3706 201.096 12.7695 199.506 12.7695ZM213.503 13.0039C212.279 13.0039 211.518 12.1616 211.518 10.8213C211.518 8.73389 212.792 7.10059 214.425 7.10059C215.619 7.10059 216.322 7.87695 216.322 9.20996C216.322 11.3779 215.114 13.0039 213.503 13.0039ZM210.229 16.6367L211.115 12.5425H211.232C211.51 13.4873 212.455 14.1392 213.598 14.1392C215.876 14.1392 217.641 11.9053 217.641 9.01953C217.641 7.25439 216.418 5.96533 214.828 5.96533C213.825 5.96533 212.88 6.43408 212.309 7.18115H212.192L212.419 6.10449H211.203L208.962 16.6367H210.229ZM218.897 14H220.186L222.529 2.96973H221.24L218.897 14ZM225.609 13.0479C224.716 13.0479 224.093 12.5352 224.093 11.8174C224.093 10.9897 224.84 10.4551 226.129 10.3892L228.231 10.2866L228.033 11.1948C227.799 12.2642 226.796 13.0479 225.609 13.0479ZM225.214 14.1392C226.173 14.1392 227.052 13.6924 227.601 12.9673H227.719L227.499 14H228.722L229.821 8.82178C229.865 8.60205 229.887 8.38965 229.887 8.17725C229.887 6.83691 228.751 5.96533 227.015 5.96533C225.411 5.96533 224.181 6.77832 223.829 8.08203H225.162C225.411 7.44482 226.027 7.09326 226.913 7.09326C227.975 7.09326 228.605 7.56201 228.605 8.36035C228.605 8.47754 228.59 8.57275 228.561 8.73389L228.444 9.26855L226.202 9.37109C224.013 9.46631 222.797 10.4038 222.797 11.9565C222.797 13.187 223.837 14.1392 225.214 14.1392ZM231.208 16.8711C232.285 16.8711 232.988 16.4756 233.911 14.8643L238.935 6.10449H237.551L234.094 12.3813H233.977L233.039 6.10449H231.787L233.069 13.9414L232.783 14.4761C232.241 15.4868 231.809 15.8018 231.282 15.8018C230.952 15.8018 230.666 15.7505 230.52 15.7065L230.3 16.7539C230.439 16.7905 230.835 16.8711 231.208 16.8711ZM240.917 9.32715C241.283 7.97949 242.198 7.07861 243.414 7.07861C244.601 7.07861 245.216 7.95752 245.216 8.99756C245.216 9.12207 245.208 9.2832 245.201 9.32715H240.917ZM242.63 14.1392C244.469 14.1392 245.714 13.2017 246.036 11.9858H244.696C244.366 12.5938 243.751 12.9893 242.711 12.9893C241.759 12.9893 240.733 12.3667 240.733 10.7407C240.733 10.6089 240.741 10.4771 240.748 10.3452H246.439C246.49 10.0449 246.534 9.46631 246.534 9.15869C246.527 7.10791 245.157 5.96533 243.531 5.96533C241.122 5.96533 239.422 7.9209 239.422 10.8359C239.422 12.9673 240.865 14.1392 242.63 14.1392ZM247.71 14H248.984L249.973 9.33447C250.288 7.8623 251.013 7.18848 252.28 7.18848C252.544 7.18848 253.049 7.23242 253.276 7.28369L253.547 6.0752C253.393 6.0166 252.968 5.96533 252.624 5.96533C251.701 5.96533 251.027 6.32422 250.507 7.10791H250.39L250.603 6.10449H249.387L247.71 14ZM254.503 8.32373C254.503 9.37109 255.111 9.99365 256.334 10.3892L257.542 10.7773C258.275 11.0117 258.531 11.3853 258.531 11.8467C258.531 12.5645 257.777 13.0771 256.707 13.0771C255.718 13.0771 255.052 12.5791 254.854 11.8833H253.558C253.675 13.2236 254.913 14.1392 256.649 14.1392C258.48 14.1392 259.827 13.1357 259.827 11.7515C259.827 10.6895 259.271 10.0449 257.945 9.62012L256.876 9.27588C256.158 9.0415 255.77 8.68994 255.77 8.20654C255.77 7.52539 256.473 7.03467 257.44 7.03467C258.363 7.03467 259.014 7.44482 259.175 8.12598H260.428C260.216 6.82959 259.139 5.96533 257.462 5.96533C255.77 5.96533 254.503 6.91748 254.503 8.32373ZM160.82 32H162.08L163.757 24.1045H162.498L160.82 32ZM163.662 22.5005C164.146 22.5005 164.541 22.105 164.541 21.6216C164.541 21.1382 164.146 20.7427 163.662 20.7427C163.179 20.7427 162.783 21.1382 162.783 21.6216C162.783 22.105 163.179 22.5005 163.662 22.5005ZM164.662 32H165.943L166.969 27.1807C167.225 25.9868 168.075 25.1006 169.291 25.1006C170.345 25.1006 170.924 25.7451 170.924 26.6973C170.924 26.9243 170.887 27.1807 170.829 27.4663L169.862 32H171.144L172.154 27.2466C172.22 26.9243 172.257 26.6167 172.257 26.3384C172.257 25.0859 171.341 23.9653 169.825 23.9653C168.646 23.9653 167.921 24.5806 167.43 25.2837H167.313L167.562 24.1045H166.339L164.662 32ZM176.399 32.0586C176.677 32.0586 176.963 32.0439 177.182 31.9927L177.409 30.9233C177.241 30.9453 177.087 30.9526 176.86 30.9526C176.23 30.9526 175.864 30.7036 175.864 30.103C175.864 29.9053 175.893 29.6709 175.952 29.3926L176.853 25.1592H178.633L178.867 24.1045H177.072L177.505 22.061H176.223L175.805 24.1045H174.472L174.253 25.1592H175.578L174.59 29.7808C174.538 30.0298 174.509 30.2568 174.509 30.4619C174.509 31.5312 175.3 32.0586 176.399 32.0586ZM181.024 27.3271C181.39 25.9795 182.305 25.0786 183.521 25.0786C184.708 25.0786 185.323 25.9575 185.323 26.9976C185.323 27.1221 185.316 27.2832 185.308 27.3271H181.024ZM182.738 32.1392C184.576 32.1392 185.821 31.2017 186.143 29.9858H184.803C184.473 30.5938 183.858 30.9893 182.818 30.9893C181.866 30.9893 180.841 30.3667 180.841 28.7407C180.841 28.6089 180.848 28.4771 180.855 28.3452H186.546C186.597 28.0449 186.641 27.4663 186.641 27.1587C186.634 25.1079 185.264 23.9653 183.638 23.9653C181.229 23.9653 179.53 25.9209 179.53 28.8359C179.53 30.9673 180.972 32.1392 182.738 32.1392ZM187.817 32H189.091L190.08 27.3345C190.395 25.8623 191.12 25.1885 192.387 25.1885C192.651 25.1885 193.156 25.2324 193.383 25.2837L193.654 24.0752C193.5 24.0166 193.076 23.9653 192.731 23.9653C191.808 23.9653 191.135 24.3242 190.615 25.1079H190.497L190.71 24.1045H189.494L187.817 32ZM193.826 32H195.108L196.133 27.1807C196.39 25.9868 197.239 25.1006 198.455 25.1006C199.51 25.1006 200.088 25.7451 200.088 26.6973C200.088 26.9243 200.052 27.1807 199.993 27.4663L199.026 32H200.308L201.319 27.2466C201.385 26.9243 201.421 26.6167 201.421 26.3384C201.421 25.0859 200.506 23.9653 198.99 23.9653C197.811 23.9653 197.085 24.5806 196.595 25.2837H196.478L196.727 24.1045H195.503L193.826 32ZM205.607 31.0479C204.713 31.0479 204.091 30.5352 204.091 29.8174C204.091 28.9897 204.838 28.4551 206.127 28.3892L208.229 28.2866L208.031 29.1948C207.797 30.2642 206.794 31.0479 205.607 31.0479ZM205.212 32.1392C206.171 32.1392 207.05 31.6924 207.599 30.9673H207.716L207.497 32H208.72L209.818 26.8218C209.862 26.6021 209.884 26.3896 209.884 26.1772C209.884 24.8369 208.749 23.9653 207.013 23.9653C205.409 23.9653 204.179 24.7783 203.827 26.082H205.16C205.409 25.4448 206.025 25.0933 206.911 25.0933C207.973 25.0933 208.603 25.562 208.603 26.3604C208.603 26.4775 208.588 26.5728 208.559 26.7339L208.442 27.2686L206.2 27.3711C204.01 27.4663 202.795 28.4038 202.795 29.9565C202.795 31.187 203.835 32.1392 205.212 32.1392ZM213.96 32.0586C214.238 32.0586 214.524 32.0439 214.744 31.9927L214.971 30.9233C214.802 30.9453 214.649 30.9526 214.422 30.9526C213.792 30.9526 213.425 30.7036 213.425 30.103C213.425 29.9053 213.455 29.6709 213.513 29.3926L214.414 25.1592H216.194L216.428 24.1045H214.634L215.066 22.061H213.784L213.367 24.1045H212.034L211.814 25.1592H213.14L212.151 29.7808C212.1 30.0298 212.071 30.2568 212.071 30.4619C212.071 31.5312 212.862 32.0586 213.96 32.0586ZM216.835 32H218.095L219.772 24.1045H218.512L216.835 32ZM219.677 22.5005C220.16 22.5005 220.555 22.105 220.555 21.6216C220.555 21.1382 220.16 20.7427 219.677 20.7427C219.193 20.7427 218.798 21.1382 218.798 21.6216C218.798 22.105 219.193 22.5005 219.677 22.5005ZM224.47 31.0039C223.24 31.0039 222.419 30.0884 222.419 28.7188C222.419 26.5581 223.525 25.1006 225.151 25.1006C226.389 25.1006 227.136 26.0161 227.136 27.5176C227.136 29.4365 225.942 31.0039 224.47 31.0039ZM225.268 23.9653C222.815 23.9653 221.079 26.0015 221.079 28.8726C221.079 30.8062 222.397 32.1392 224.309 32.1392C226.719 32.1392 228.484 30.0591 228.484 27.2173C228.484 25.2837 227.18 23.9653 225.268 23.9653ZM229.703 32H230.985L232.01 27.1807C232.267 25.9868 233.116 25.1006 234.332 25.1006C235.387 25.1006 235.965 25.7451 235.965 26.6973C235.965 26.9243 235.929 27.1807 235.87 27.4663L234.903 32H236.185L237.196 27.2466C237.262 26.9243 237.298 26.6167 237.298 26.3384C237.298 25.0859 236.383 23.9653 234.867 23.9653C233.688 23.9653 232.962 24.5806 232.472 25.2837H232.354L232.604 24.1045H231.38L229.703 32ZM241.484 31.0479C240.59 31.0479 239.968 30.5352 239.968 29.8174C239.968 28.9897 240.715 28.4551 242.004 28.3892L244.106 28.2866L243.908 29.1948C243.674 30.2642 242.671 31.0479 241.484 31.0479ZM241.088 32.1392C242.048 32.1392 242.927 31.6924 243.476 30.9673H243.593L243.374 32H244.597L245.695 26.8218C245.739 26.6021 245.761 26.3896 245.761 26.1772C245.761 24.8369 244.626 23.9653 242.89 23.9653C241.286 23.9653 240.056 24.7783 239.704 26.082H241.037C241.286 25.4448 241.901 25.0933 242.788 25.0933C243.85 25.0933 244.48 25.562 244.48 26.3604C244.48 26.4775 244.465 26.5728 244.436 26.7339L244.318 27.2686L242.077 27.3711C239.887 27.4663 238.671 28.4038 238.671 29.9565C238.671 31.187 239.712 32.1392 241.088 32.1392ZM247.098 32H248.387L250.731 20.9697H249.442L247.098 32ZM255.279 32H256.553L257.542 27.3345C257.857 25.8623 258.582 25.1885 259.849 25.1885C260.113 25.1885 260.618 25.2324 260.845 25.2837L261.116 24.0752C260.962 24.0166 260.537 23.9653 260.193 23.9653C259.27 23.9653 258.597 24.3242 258.077 25.1079H257.959L258.172 24.1045H256.956L255.279 32ZM263.998 31.0479C263.104 31.0479 262.482 30.5352 262.482 29.8174C262.482 28.9897 263.229 28.4551 264.518 28.3892L266.62 28.2866L266.422 29.1948C266.188 30.2642 265.185 31.0479 263.998 31.0479ZM263.603 32.1392C264.562 32.1392 265.441 31.6924 265.99 30.9673H266.107L265.888 32H267.111L268.209 26.8218C268.253 26.6021 268.275 26.3896 268.275 26.1772C268.275 24.8369 267.14 23.9653 265.404 23.9653C263.8 23.9653 262.57 24.7783 262.218 26.082H263.551C263.8 25.4448 264.416 25.0933 265.302 25.0933C266.364 25.0933 266.994 25.562 266.994 26.3604C266.994 26.4775 266.979 26.5728 266.95 26.7339L266.833 27.2686L264.591 27.3711C262.401 27.4663 261.186 28.4038 261.186 29.9565C261.186 31.187 262.226 32.1392 263.603 32.1392ZM272.351 32.0586C272.629 32.0586 272.915 32.0439 273.135 31.9927L273.362 30.9233C273.193 30.9453 273.04 30.9526 272.813 30.9526C272.183 30.9526 271.817 30.7036 271.817 30.103C271.817 29.9053 271.846 29.6709 271.904 29.3926L272.805 25.1592H274.585L274.819 24.1045H273.025L273.457 22.061H272.175L271.758 24.1045H270.425L270.205 25.1592H271.531L270.542 29.7808C270.491 30.0298 270.462 30.2568 270.462 30.4619C270.462 31.5312 271.253 32.0586 272.351 32.0586ZM275.226 32H276.486L278.163 24.1045H276.903L275.226 32ZM278.068 22.5005C278.551 22.5005 278.946 22.105 278.946 21.6216C278.946 21.1382 278.551 20.7427 278.068 20.7427C277.584 20.7427 277.189 21.1382 277.189 21.6216C277.189 22.105 277.584 22.5005 278.068 22.5005ZM279.067 32H280.349L281.374 27.1807C281.631 25.9868 282.48 25.1006 283.696 25.1006C284.751 25.1006 285.329 25.7451 285.329 26.6973C285.329 26.9243 285.293 27.1807 285.234 27.4663L284.267 32H285.549L286.56 27.2466C286.626 26.9243 286.662 26.6167 286.662 26.3384C286.662 25.0859 285.747 23.9653 284.231 23.9653C283.052 23.9653 282.326 24.5806 281.836 25.2837H281.719L281.968 24.1045H280.744L279.067 32ZM290.943 35.0249C292.994 35.0249 294.334 33.9922 294.679 32.3809L296.466 24.1045H295.243L294.935 25.562H294.818C294.503 24.6318 293.463 23.9653 292.35 23.9653C290.116 23.9653 288.424 25.9136 288.424 28.7261C288.424 30.6084 289.691 31.8828 291.295 31.8828C292.291 31.8828 293.111 31.4946 293.683 30.6963H293.8L293.455 32.1611C293.214 33.1938 292.459 33.9336 291.046 33.9336C289.889 33.9336 289.193 33.4062 289.083 32.7764H287.743C287.838 33.9775 289.112 35.0249 290.943 35.0249ZM291.683 30.7695C290.489 30.7695 289.742 29.9419 289.742 28.5356C289.742 26.4409 290.877 25.1006 292.445 25.1006C293.683 25.1006 294.474 25.9429 294.474 27.2832C294.474 29.3706 293.272 30.7695 291.683 30.7695Z" fill="#E2E9F2"/>
</svg>
